<?xml version="1.0" encoding="UTF-8"?>
<svg width="100" height="100" viewBox="0 0 32 32" xmlns="http://www.w3.org/2000/svg">
<g transform="translate(4.148 4.148)">
<path d="m11.925 0c0.116 0.038404 0.23513 0.069754 0.34799 0.11678 0.58389 0.23983 1.1709 0.47574 1.7478 0.73202 0.18901 0.088346 0.39803 0.12512 0.60584 0.10659 0.64346-0.051728 1.2885-0.078375 1.9335-0.10659 0.38551-0.026395 0.75277 0.16756 0.94834 0.50082 0.14029 0.21632 0.28764 0.42871 0.43968 0.63797s0.35347 0.29391 0.64032 0.24061c1.1709-0.21475 2.3513-0.32839 3.5347-0.10346 0.43185 0.082294 0.85115 0.24923 1.2658 0.40598 0.33858 0.12854 0.48984 0.41304 0.53765 0.76494 0.11661 0.89877 0.10368 1.8096-0.038404 2.7047-0.096402 0.63562-0.26334 1.2611-0.4099 1.8881-0.028215 0.11913-0.061133 0.21396 0.030566 0.32369 0.98674 1.1835 0.92483 2.4696 0.36366 3.802-0.41774 0.99615-1.0393 1.8622-1.6733 2.7204-1.8207 2.472-3.9626 4.6453-6.2363 6.6948-0.40128 0.36209-0.80726 0.72027-1.2352 1.0494-0.90915 0.69911-1.9312 1.1027-3.095 1.0847-0.70538-0.010972-1.3614-0.2218-1.9852-0.54079-0.91385-0.47025-1.7438-1.0636-2.5527-1.6874-1.7243-1.3324-3.3513-2.7721-4.7973-4.4039-0.57292-0.64581-1.0777-1.3598-1.6004-2.0534-0.27134-0.37028-0.46806-0.7898-0.57919-1.2352-0.030842-0.082278-0.070246-0.16109-0.11756-0.23513v-1.4108c0.041539-0.090915 0.089348-0.17948 0.12227-0.27353 0.14735-0.41931 0.25237-0.85821 0.44204-1.2579 1.6623-3.5081 4.0301-6.4683 7.0138-8.9371 0.80178-0.66305 1.6992-1.1717 2.7275-1.4108 0.11913-0.028215 0.23513-0.078375 0.34877-0.11443l1.2705-0.003135zm-4.5881 19.548c0.026648 0.021945 0.054079 0.043106 0.078375 0.064268l0.13245 0.070538c0.054239 0.083484 0.11963 0.15916 0.19437 0.22494 0.6765 0.46239 1.4154 0.82605 2.1945 1.08 0.39899 0.13785 0.83375 0.13091 1.2281-0.019594 0.87153-0.32604 1.6851-0.71243 2.1161-1.6122 0.019964-0.042118 0.043843-0.082266 0.071321-0.11991 0.26649-0.37867 0.68373-0.62359 1.1443-0.67168 0.4632-0.050944 0.93188-0.054079 1.399-0.078375 0.44047-0.021161 0.8441-0.15675 1.0973-0.52825 0.16616-0.2461 0.26726-0.54314 0.36131-0.82843 0.14421-0.43733 0.41617-0.72419 0.86213-0.84018 0.17684-0.056719 0.35795-0.099178 0.54157-0.12697 1.0784-0.098753 1.8473-0.70538 2.4296-1.5471 0.37777-0.54236 0.67403-1.1474 0.95304-1.7485 0.43216-0.90568 0.74211-1.8648 0.92169-2.8521 0.093266-0.54236-0.19907-1.0863-0.76337-1.0549 0.015675-0.078375 0.027431-0.15675 0.049376-0.23513 0.15675-0.56195 0.33074-1.1208 0.48436-1.6843 0.30018-1.1027 0.45222-2.2141 0.2555-3.3592-0.063484-0.36915-0.23513-0.56273-0.58468-0.63954-0.63617-0.15247-1.2919-0.20691-1.9445-0.16145-1.0534 0.089348-2.0903 0.23513-3.088 0.59722-0.084276 0.02515-0.16982 0.045818-0.25629 0.061916 0-0.2798 0.019594-0.52668 0-0.76886-0.068186-0.69911-0.23513-0.88564-0.76259-0.98047-0.54863-0.097969-1.1317-0.15048-1.6757-0.066619-1.5166 0.23513-2.8897 0.85272-4.1186 1.7775-0.32526 0.24453-0.64032 0.50317-0.98909 0.77748-0.32839-0.40285-0.78375-0.38639-1.2054-0.3135-0.5178 0.090526-1.0262 0.22826-1.5189 0.41147-1.5864 0.58314-2.9821 1.5909-4.0348 2.9132-1.2023 1.5079-1.9523 3.1907-1.8536 5.1728 0.018877 0.36298 0.10721 0.71896 0.26021 1.0487 0.13515 0.33391 0.44226 0.56702 0.80021 0.60741 0.22572 0.14108 0.45458 0.27902 0.67716 0.42479 0.99168 0.63748 1.9077 1.3855 2.7306 2.2298 0.10275 0.089136 0.21406 0.16789 0.33231 0.23513l0.068186 0.14264 0.068186 0.13872c0.073673 0.15675 0.14343 0.31742 0.22023 0.47025 0.29077 0.59016 0.47809 1.2399 0.98831 1.7023l0.13324 0.084645 0.0023512 0.0015675z" fill="#fdb610"/>
<path d="m7.5507 19.682-0.13245-0.070538-0.078375-0.064268-0.13324-0.084645c-0.51022-0.46241-0.69754-1.1121-0.98831-1.7023-0.078375-0.15675-0.14656-0.3135-0.22023-0.47025l-0.068186-0.13872-0.073673-0.14421c-0.004537-0.046214-0.014534-0.091728-0.029783-0.13559-0.30566-0.6317-0.59957-1.2705-0.92561-1.8912-0.20283-0.36999-0.42602-0.72846-0.66854-1.0737-0.35504-0.52276-0.63954-0.56273-1.131-0.18418-0.054863 0.042323-0.11521 0.078375-0.16929 0.12305-0.23023 0.18615-0.52001 0.28275-0.81589 0.27196-0.35806-0.039967-0.66549-0.27279-0.80099-0.60662-0.15282-0.32999-0.24089-0.68625-0.25942-1.0494-0.098753-1.9813 0.6513-3.664 1.8536-5.1728 1.0509-1.3207 2.4441-2.3278 4.0277-2.9116 0.49269-0.18321 1.0011-0.32094 1.5189-0.41147 0.42558-0.078375 0.87702-0.092483 1.2054 0.3135 0.34877-0.27431 0.66384-0.53295 0.98909-0.77748 1.2289-0.92796 2.6021-1.5424 4.1186-1.7775 0.54392-0.083861 1.1286-0.03135 1.6757 0.066619 0.53138 0.094834 0.6944 0.28137 0.76259 0.98047 0.023513 0.24218 0 0.48906 0 0.76886 0.086462-0.016098 0.17201-0.036766 0.25629-0.061916 0.99772-0.36444 2.0378-0.50787 3.088-0.59722 0.6526-0.045461 1.3083 0.0089837 1.9445 0.16145 0.35112 0.078375 0.52119 0.27039 0.58468 0.63954 0.19672 1.1451 0.044674 2.2564-0.2555 3.3592-0.15675 0.56352-0.32369 1.1223-0.48436 1.6843-0.021945 0.078375-0.033701 0.15675-0.049376 0.23513-0.048972 0.090173-0.092165 0.18337-0.12932 0.27902-0.32258 0.99114-0.73607 1.9504-1.2352 2.8654-0.61446 1.127-1.4891 1.9594-2.7808 2.2392-0.70538 0.15675-1.1035 0.048593-1.3324-0.68735-0.045264-0.18149-0.10395-0.35937-0.17556-0.53217-0.078375-0.15675-0.20221-0.29469-0.35582-0.51022-0.061133 0.18418-0.10189 0.27745-0.12305 0.37385-0.078375 0.35347-0.116 0.71635-0.22102 1.0604-0.23513 0.76886-0.4969 1.5299-0.75632 2.2917-0.094834 0.2798-0.29391 0.41382-0.598 0.46633-0.46255 0.068619-0.93297 0.064652-1.3943-0.011756-0.51414-0.071321-0.68186-0.21396-0.83626-0.70538-0.091403-0.30131-0.20672-0.59485-0.34485-0.8778-0.22845-0.46112-0.63847-0.80639-1.1317-0.95304-0.026648 0.34328-0.060349 0.656-0.074456 0.9695-0.029782 0.69049-0.038404 1.3818-0.078375 2.0715-0.040755 0.70538-0.25864 1.3684-0.57371 2.0064-0.33153 0.67246-1.0024 0.81432-1.5307 0.69676-0.36131-0.083078-0.71321-0.2124-1.069-0.32055zm14.394-14.389c0.021925-0.066771 0.037152-0.13556 0.045458-0.20534 0.018026-0.73359-0.19045-1.0385-0.96872-1.0659h-0.070538c-0.65208-0.016459-1.2791 0.11208-1.9061 0.28372-0.64973 0.1787-1.2673 0.43263-1.7815 0.88407-0.089692 0.070388-0.1525 0.16944-0.17791 0.28058-0.086996 0.8778-0.15675 1.754-0.23513 2.6311-0.061133 0.44987-0.122 0.89975-0.18261 1.3496-0.072889 0.54392-0.14264 1.0894-0.22023 1.6333-0.026648 0.18497 0.0070538 0.30958 0.20613 0.37934 0.30096 0.10581 0.50865 0.33388 0.66227 0.60427 0.12148 0.21318 0.22886 0.43577 0.32918 0.65992 0.078375 0.18497 0.17791 0.24688 0.4052 0.21396 0.45882-0.056148 0.87476-0.29739 1.1513-0.66776 0.30253-0.40128 0.60584-0.81275 0.82607-1.2611 0.59524-1.1944 1.1014-2.4311 1.5142-3.7001 0.21161-0.65835 0.40285-1.3206 0.40285-2.0197zm-6.0129-0.85664c0.0070537-0.36053 0.040755-0.7234 0.01254-1.0816-0.024296-0.29783-0.22102-0.45928-0.52198-0.47025-0.25715-0.015336-0.51521 0.0017798-0.76808 0.050944-1.6882 0.38796-3.1209 1.2391-4.3584 2.4375-0.11521 0.11208-0.13481 0.21083-0.098753 0.3715 0.12462 0.55881 0.22807 1.1223 0.32839 1.6866 0.072889 0.41382 0.12697 0.83078 0.18967 1.2462v0.28215c0.047025 1.2315 0.095095 2.4628 0.14421 3.6938 0.0066922 0.03865 0.017464 0.076482 0.032134 0.11286 0.13167 0.035269 0.26804 0.066619 0.40128 0.10973 0.86213 0.27666 1.4147 0.8825 1.8026 1.6772 0.11215 0.24389 0.25805 0.47079 0.43341 0.67403 0.20299 0.22415 0.41931 0.19986 0.64895 0 0.2496-0.21952 0.4219-0.51356 0.49141-0.83861 0.13794-0.627 0.25394-1.2611 0.35661-1.8951 0.14839-0.91229 0.28476-1.8267 0.40912-2.7431 0.092483-0.68422 0.15675-1.3723 0.23513-2.0597 0.067403-0.627 0.13559-1.254 0.18888-1.8873 0.032918-0.45458 0.050944-0.91072 0.072889-1.3669zm-6.636 2.8999c-0.090131-0.47025-0.14578-0.94991-0.2798-1.4108-0.15675-0.54392-0.47574-0.69832-1.0189-0.56508-0.19535 0.043289-0.38425 0.11179-0.56195 0.20378-0.64659 0.35269-1.3026 0.69519-1.921 1.0925-1.3206 0.8441-2.2549 2.0283-2.8787 3.461-0.24845 0.57214-0.42244 1.1678-0.42009 1.7948-0.014891 0.44439 0.063484 0.53765 0.48906 0.49847 0.19731-0.019989 0.38933-0.075762 0.56665-0.16459 0.23983-0.11991 0.23983-0.23513 0.05016-0.42244-0.054863-0.055646-0.099536-0.1207-0.15048-0.18183 0.10424-0.18967 0.23513-0.23513 0.42401-0.18575 0.54863 0.13245 1.011 0.39658 1.3238 0.86213 0.31479 0.45218 0.59738 0.92596 0.84567 1.4178 0.46085 0.96166 0.86683 1.9492 1.3081 2.9203 0.21867 0.47966 0.44752 0.95696 0.70538 1.4178 0.19995 0.36301 0.61291 0.55361 1.0189 0.47025 0.41225-0.06897 0.59487-0.35504 0.6607-0.72575 0.077861-0.37783 0.12556-0.76124 0.14264-1.1466 0.01881-1.4897 0.022468-2.9788 0.010973-4.4674-0.0054863-0.83313-0.027431-1.667-0.078375-2.4986-0.055646-0.78924-0.15753-1.58-0.23669-2.3724v0.0023512z" fill="#4E4040"/>
<path d="m7.5507 19.682c0.35582 0.10816 0.70538 0.23513 1.0698 0.3182 0.52825 0.11756 1.1991-0.024296 1.5307-0.69676 0.3135-0.63797 0.53295-1.2979 0.57371-2.0064 0.039971-0.6897 0.048593-1.381 0.078375-2.0715 0.014108-0.3135 0.047809-0.627 0.074456-0.9695 0.49327 0.14665 0.90328 0.49192 1.1317 0.95304 0.13813 0.28296 0.25345 0.57649 0.34485 0.8778 0.15675 0.49376 0.32212 0.63641 0.83626 0.70538 0.46132 0.076409 0.93175 0.080375 1.3943 0.011756 0.3041-0.052511 0.50317-0.18653 0.598-0.46633 0.25942-0.76181 0.52119-1.5228 0.75632-2.2917 0.10502-0.34407 0.14578-0.70538 0.22102-1.0604 0.021161-0.096401 0.061916-0.18967 0.12305-0.37385 0.15675 0.21553 0.27745 0.35112 0.35582 0.51022 0.071614 0.1728 0.1303 0.35068 0.17556 0.53217 0.23513 0.73594 0.627 0.84253 1.3324 0.68735 1.2948-0.28372 2.1663-1.1121 2.7808-2.2392 0.49912-0.91504 0.91261-1.8743 1.2352-2.8654 0.037154-0.09565 0.080347-0.18884 0.12932-0.27902 0.5643-0.03135 0.85664 0.51257 0.76337 1.0549-0.17959 0.98731-0.48953 1.9464-0.92169 2.8521-0.27902 0.60114-0.57527 1.2062-0.95304 1.7485-0.58468 0.83861-1.3535 1.4484-2.4296 1.5471-0.18363 0.02779-0.36473 0.070248-0.54157 0.12697-0.44595 0.116-0.71792 0.40285-0.86213 0.84018-0.09405 0.28529-0.19515 0.58233-0.36131 0.82843-0.2508 0.37228-0.65443 0.50709-1.0973 0.52825-0.47025 0.021945-0.9358 0.02508-1.399 0.078375-0.46054 0.048087-0.87778 0.293-1.1443 0.67168-0.027478 0.037648-0.051357 0.077796-0.071321 0.11991-0.4295 0.89975-1.243 1.2861-2.1161 1.6122-0.39439 0.1505-0.82915 0.15744-1.2281 0.019594-0.77908-0.25396-1.518-0.61762-2.1945-1.08-0.071362-0.066148-0.13357-0.14153-0.18497-0.22415zm-5.4345-5.5646c0.29561 0.010595 0.58508-0.08599 0.8151-0.27196 0.054079-0.04389 0.11443-0.078375 0.16929-0.12305 0.49141-0.37855 0.77591-0.33858 1.131 0.18418 0.24245 0.34452 0.46563 0.7022 0.66854 1.0714 0.32604 0.62073 0.61995 1.2595 0.92561 1.8912 0.015248 0.043861 0.025246 0.089375 0.029783 0.13559-0.11825-0.067231-0.22956-0.14599-0.33231-0.23513-0.8226-0.84419-1.7384-1.5922-2.7298-2.2298-0.2218-0.14343-0.45066-0.28137-0.67716-0.42244z" fill="#e37c11"/>
<path d="m5.8576 17.007 0.087 0.14264-0.087-0.14264zm0.06897 0.14029 0.087 0.13872-0.087-0.13872z" fill="#017B8F"/>
<path d="m7.2019 19.462 0.13324 0.1-0.13324-0.1zm0.13481 0.087375 0.1 0.082-0.1-0.082z" fill="#E27B11"/>
<path d="m9.2961 7.3343c0.078375 0.79237 0.18105 1.5832 0.23513 2.3763 0.053295 0.83156 0.078375 1.6655 0.078375 2.4986 0.0099275 1.4907 0.00627 2.9798-0.010973 4.4674-0.017084 0.38539-0.064782 0.7688-0.14264 1.1466-0.065835 0.37071-0.24845 0.65678-0.6607 0.72575-0.40597 0.083358-0.81893-0.10724-1.0189-0.47025-0.25472-0.46085-0.48357-0.9405-0.70538-1.4178-0.44125-0.97107-0.84724-1.9594-1.3081-2.9203-0.24829-0.49185-0.53088-0.96562-0.84567-1.4178-0.3135-0.47025-0.77905-0.73281-1.3238-0.86213-0.18575-0.045458-0.31977-0.0039188-0.42401 0.18575 0.050944 0.061133 0.095618 0.12618 0.15048 0.18183 0.18967 0.18967 0.18967 0.30253-0.05016 0.42244-0.17732 0.088826-0.36934 0.1446-0.56665 0.16459-0.42558 0.039188-0.50395-0.054079-0.48906-0.49847 0.10973-0.094834 0.25315-0.17007 0.32134-0.28842 0.30488-0.52511 0.58938-1.0628 0.87859-1.5965 0.18026-0.33388 0.43577-0.41617 0.74378-0.19202 0.23806 0.18857 0.46446 0.39141 0.67795 0.60741 0.44831 0.42009 0.94599 0.64346 1.5604 0.39188 0.4368-0.17713 0.82005-0.46476 1.1121-0.8347 0.66776-0.84097 1.3269-1.6906 1.7877-2.6702zm6.636-2.8975c-0.02508 0.45614-0.039971 0.91229-0.078375 1.3676-0.053295 0.627-0.12148 1.2587-0.18888 1.8873-0.072889 0.68735-0.13951 1.3755-0.23513 2.0597-0.12383 0.91647-0.26021 1.8308-0.40912 2.7431-0.10267 0.63406-0.21867 1.2673-0.35661 1.8951-0.069513 0.32505-0.24181 0.61909-0.49141 0.83861-0.22964 0.20142-0.44595 0.22572-0.64895 0-0.17536-0.20324-0.32126-0.43014-0.43341-0.67403-0.38482-0.79472-0.9405-1.4006-1.8026-1.6772-0.13324-0.043106-0.26961-0.074456-0.40128-0.10973-0.01467-0.036378-0.025442-0.07421-0.032134-0.11286-0.048593-1.231-0.096663-2.4623-0.14421-3.6938v-0.28215c0.4773 0.3041 0.73594 0.29391 1.1153-0.090131 0.73777-0.73882 1.4656-1.4855 2.1835-2.24 0.46633-0.49063 0.90445-1.0087 1.3716-1.4977 0.15753-0.16302 0.3668-0.27666 0.55176-0.41382zm6.0129 0.85664c0 0.69911-0.1928 1.3614-0.40363 2.0197-0.41285 1.269-0.91896 2.5057-1.5142 3.7001-0.22023 0.44831-0.52355 0.86213-0.82607 1.2611-0.2773 0.37111-0.69451 0.61243-1.1545 0.66776-0.22729 0.032918-0.32291-0.028999-0.4052-0.21396-0.10032-0.22415-0.20769-0.44674-0.32918-0.65992-0.15675-0.27039-0.36131-0.49847-0.66227-0.60427-0.19907-0.069754-0.23513-0.19437-0.20613-0.37934 0.078375-0.54392 0.14735-1.0894 0.22023-1.6333 0.061655-0.44883 0.12383-0.8987 0.18653-1.3496 0.049376 0.19986 0.078375 0.41539 0.38325 0.5259 0.078375-0.097969 0.15675-0.21788 0.2508-0.32055 0.56786-0.6091 1.193-1.1621 1.8669-1.6514 0.79708-0.57762 1.6357-1.0863 2.5934-1.3622z" fill="#D8A87C"/>
<path d="m9.2961 7.3343c-0.46085 0.97969-1.12 1.8293-1.7862 2.671-0.29209 0.36993-0.67534 0.65757-1.1121 0.8347-0.61446 0.25002-1.1121 0.026648-1.5604-0.39188-0.21349-0.216-0.43988-0.41884-0.67795-0.60741-0.30801-0.22415-0.56352-0.14186-0.74378 0.19202-0.2892 0.53373-0.57371 1.0714-0.87859 1.5965-0.068186 0.11835-0.21161 0.19359-0.32134 0.28842 0-0.63249 0.17164-1.2258 0.42009-1.7979 0.627-1.4327 1.5581-2.6169 2.8787-3.465 0.61838-0.39893 1.2744-0.74143 1.921-1.0902 0.17675-0.091463 0.36457-0.15969 0.55881-0.20299 0.54863-0.13324 0.86213 0.021161 1.0189 0.56508 0.13716 0.45771 0.1928 0.93737 0.28293 1.4076zm6.636-2.8975c-0.18497 0.13716-0.39188 0.2508-0.54863 0.41539-0.47025 0.48906-0.90523 1.0071-1.3716 1.4977-0.72001 0.75501-1.4458 1.5017-2.1773 2.24-0.37934 0.38404-0.63797 0.39188-1.1153 0.090131-0.0627-0.41539-0.11678-0.83234-0.18967-1.2462-0.10032-0.5643-0.20378-1.1278-0.32839-1.6866-0.036052-0.15675-0.016459-0.25942 0.098753-0.3715 1.2336-1.1984 2.6663-2.0495 4.3561-2.4375 0.25287-0.049164 0.51093-0.06628 0.76808-0.050944 0.30096 0.0086213 0.49768 0.17007 0.52198 0.47025 0.026648 0.35582-0.0070538 0.71792-0.014108 1.0792zm6.0129 0.85664c-0.95931 0.27588-1.7979 0.78375-2.5974 1.3622-0.67335 0.48959-1.298 1.0429-1.8653 1.6521-0.096401 0.10267-0.17478 0.22259-0.2508 0.32055-0.30723-0.11051-0.33388-0.32604-0.38325-0.5259 0.080726-0.8778 0.15048-1.754 0.23748-2.6318 0.024589-0.11071 0.086251-0.2097 0.17478-0.28058 0.51414-0.45144 1.1317-0.70538 1.7815-0.88407 0.627-0.17164 1.254-0.30018 1.9084-0.2845h0.070538c0.77827 0.027431 0.98674 0.33231 0.96872 1.0659-0.0079992 0.070024-0.022965 0.13907-0.044674 0.20613z" fill="#FCE3C2"/>
</g>
</svg>
