<?xml version="1.0" encoding="UTF-8"?>
<svg width="100" height="100" viewBox="0 0 32 32" xmlns="http://www.w3.org/2000/svg">
<g transform="translate(4.148 3.556)">
<path d="m0 14.891v-1.3441c0.029394-0.046492 0.05558-0.094936 0.078375-0.14499 0.23513-0.63641 0.40912-1.3034 0.71086-1.9053 1.4449-2.8822 3.4092-5.473 5.7943-7.6424 0.80883-0.74065 1.6459-1.435 2.6475-1.9037 0.95304-0.44595 1.9414-0.60114 2.9822-0.39815 0.15817 0.02354 0.3197 0.0076562 0.47025-0.046241 1.6898-0.57449 3.403-1.0573 5.1728-1.323 0.32839-0.049376 0.65365-0.12148 0.97969-0.1834h1.6984c0.16224 0.052511 0.32682 0.10032 0.48749 0.15675 0.38561 0.13872 0.70146 0.36758 0.76808 0.79551 0.16067 1.0189 0.32682 2.0378 0.43577 3.0668 0.13402 1.2681 0.048592 2.537-0.13794 3.7965-0.032918 0.22102 0.033701 0.36758 0.18653 0.52746 0.4389 0.45823 0.86448 0.92848 1.2767 1.4108 0.33726 0.39559 0.566 0.87198 0.66384 1.3825 0.15048 0.75475 0.0070538 1.4727-0.25707 2.1749-0.35582 0.9405-0.91307 1.7721-1.4962 2.5864-2.1161 2.9516-4.6672 5.4988-7.4025 7.8689-0.29549 0.25379-0.61403 0.47945-0.95147 0.67403-0.98596 0.57684-2.044 0.82607-3.182 0.59879-0.84488-0.16929-1.5824-0.58389-2.2893-1.0557-2.3368-1.5672-4.4669-3.4226-6.3398-5.5223-0.9405-1.0526-1.8967-2.1271-2.269-3.5574 0.0015675-0.0070538-0.017243-0.01254-0.027431-0.01254zm18.839 0.35426 0.066619-0.15675c0.33153-0.92796 0.71165-1.8426 0.98361-2.7878 0.62152-2.1616 0.97812-4.3788 1.185-6.6149 0.116-1.254 0.052511-2.508-0.29861-3.7408-0.11835-0.4146-0.36288-0.61524-0.76494-0.65522-0.19876-0.023758-0.39947-0.026385-0.59879-0.0078375-0.81589 0.093266-1.6404 0.15675-2.4453 0.3135-3.8404 0.74692-7.1478 2.5299-10.018 5.1641-1.4256 1.3081-2.5362 2.8333-3.2424 4.6406-0.21396 0.54863-0.43655 1.1067-0.37855 1.7062 0.14735 1.5173 0.83861 2.7431 2.0534 3.6687 0.12926 0.082046 0.26474 0.15385 0.4052 0.21475l-0.019594-0.40677c0.37071 0.37307 0.76651 0.72497 1.1067 1.1239s0.41539 0.88172 0.25864 1.3896c-0.21553 0.68186-0.013324 1.254 0.47495 1.7313 0.48828 0.4773 0.9985 0.92169 1.5095 1.37 0.91307 0.80099 1.9852 1.3324 3.0997 1.7791 0.36444 0.14656 0.75005 0.20848 1.1215 0.0039188 0.17588-0.093932 0.34389-0.20192 0.50238-0.32291 0.72654-0.56587 1.3136-1.2665 1.91-1.9594 1.011-1.1756 1.8371-2.4712 2.374-3.9242 0.30331-0.82059 0.48201-1.6866 0.71713-2.5323l-0.0023513 0.0031351z" fill="#fdb610"/>
<path d="m18.841 15.24c-0.23513 0.84567-0.41382 1.7117-0.71713 2.5323-0.53687 1.4531-1.3629 2.7431-2.374 3.9242-0.59643 0.69519-1.1835 1.3959-1.91 1.9594-0.15849 0.12099-0.3265 0.22897-0.50238 0.32291-0.3715 0.20456-0.7571 0.14264-1.1215-0.0039187-1.1145-0.44909-2.1867-0.97812-3.0997-1.7791-0.51101-0.44831-1.0189-0.89661-1.5095-1.37-0.49063-0.47339-0.69049-1.0471-0.47417-1.729 0.15675-0.50787 0.078375-0.99223-0.25864-1.3935-0.33701-0.40128-0.73594-0.75083-1.1067-1.1239-0.078375-0.24453-0.15126-0.48984-0.23513-0.73359-0.15675-0.46555-0.34877-0.92248-0.47025-1.3974-0.21396-0.81118-0.30096-1.6349-0.057998-2.461 0.092981 0.59028 0.29468 1.1582 0.59487 1.6749 0.36657 0.647 0.95222 1.1418 1.6514 1.3951 0.21553 0.078375 0.3715 0.036053 0.51336-0.15675 0.26804-0.3668 0.55803-0.71713 0.8394-1.0737 0.051728 1.0142 0.55254 1.8026 1.2297 1.9155l-0.028999-0.24061c0.37228 0.12697 0.70538 0.024296 1.0189-0.18105 0.1834-0.11991 0.36288-0.2461 0.54471-0.36915 0.061916 0 0.15675 0.023513 0.18261-0.0078375 0.61524-0.67403 1.0878-1.4264 1.0871-2.3724 0-0.56117-0.069754-1.1223-0.1207-1.6827-0.035269-0.39188-0.10189-0.78375 0.15675-1.1184 0.39188-0.4969 0.77748-1.0016 1.2187-1.4507 0.46063-0.45904 1.0414-0.77878 1.6757-0.92248 0.37542-0.090915 0.59095 0.022729 0.72419 0.36836 0.046957 0.1201 0.07677 0.24622 0.088564 0.37463 0.036052 0.41382 0.060349 0.82921 0.091699 1.2846l0.18026-0.25002c-0.028999 0.45222-0.03762 0.90758-0.093266 1.3575-0.12697 1.0244-0.47652 1.9899-0.82764 2.954-0.096826 0.098089-0.18666 0.20285-0.26883 0.3135-0.51156 0.77795-1.1654 1.4523-1.9272 1.9876-0.61289 0.43498-1.2979 0.65678-2.0573 0.5886-0.19751-0.018026-0.39188-0.082294-0.58781-0.10267-0.096401-0.0094051-0.25158 0-0.28372 0.061133-0.046241 0.078375-0.016459 0.21553 0.0047025 0.32291 0.02409 0.066207 0.061124 0.12695 0.10894 0.1787 0.32996 0.47025 0.76886 0.75005 1.3473 0.79786l-0.34877 0.44125c0.25707 0.39658 0.63954 0.50238 1.0447 0.44517 0.47025-0.066619 0.9358-0.20613 1.4029-0.3135l1.5017-0.34877c-0.28999 0.30488-0.56117 0.63092-0.87388 0.90915-1.0487 0.93266-2.2603 1.5087-3.6797 1.5761-0.42009 0.019594-0.84253-0.01881-1.2634-0.029783-0.34015-0.0078375-0.45222 0.16145-0.2892 0.45849 0.068378 0.1369 0.16352 0.25869 0.2798 0.35817 0.37855 0.29391 0.76259 0.58311 1.1647 0.84488 0.42558 0.27666 0.86213 0.2461 1.2877-0.036053 0.59643-0.39658 1.2093-0.76886 1.794-1.1803 1.7823-1.254 3.2526-2.7988 4.3106-4.7158 0.14682-0.27013 0.29443-0.53765 0.44282-0.80256z" fill="#e37c11"/>
<path d="m18.841 15.24c-0.14787 0.26491-0.29574 0.53008-0.4436 0.79551-1.0596 1.9171-2.5299 3.4618-4.3106 4.7158-0.58468 0.41147-1.1976 0.78375-1.794 1.1803-0.42479 0.28215-0.86213 0.3135-1.2877 0.036053-0.40206-0.26177-0.78375-0.54863-1.1647-0.84488-0.11628-0.099481-0.21142-0.22128-0.2798-0.35817-0.16302-0.29704-0.050944-0.46633 0.2892-0.45849 0.42087 0.010973 0.84332 0.049376 1.2634 0.029783 1.4194-0.067403 2.6311-0.64346 3.6797-1.5761 0.3135-0.27823 0.58389-0.60427 0.87388-0.90915l0.078375-0.071321c0.44674-0.64111 0.94677-1.254 1.3324-1.9288 0.83899-1.4597 1.4378-3.0448 1.7736-4.6947 0.054423-0.11203 0.10078-0.22779 0.13872-0.34642 0.40611-1.5936 0.63142-3.2278 0.67168-4.8718 0.014891-0.66776 0-1.3394-0.049376-2.0056-0.061916-0.86213-0.41852-1.1756-1.2767-1.1215-0.97347 0.047068-1.9378 0.21047-2.8724 0.48671-1.9045 0.5886-3.628 1.5322-5.2331 2.6922-0.78375 0.56979-1.522 1.2109-2.2815 1.8199-1.179 1.0008-2.1306 2.242-2.7909 3.6405-0.078375 0.16694-0.10502 0.35739-0.15675 0.53765-0.24296 0.82607-0.15675 1.6498 0.057998 2.461 0.12462 0.47495 0.3135 0.93188 0.47025 1.3974 0.082294 0.24375 0.15675 0.48906 0.23513 0.73359l0.019594 0.40677c-0.13936-0.060794-0.27379-0.13233-0.40206-0.21396-1.2148-0.92483-1.9061-2.1514-2.0534-3.6687-0.057998-0.59957 0.16459-1.16 0.37855-1.7062 0.70538-1.8073 1.8167-3.3325 3.2424-4.6406 2.8701-2.6342 6.1799-4.4172 10.018-5.1641 0.80491-0.15675 1.6294-0.21788 2.4453-0.3135 0.19931-0.018547 0.40003-0.01592 0.59879 0.0078375 0.40206 0.039971 0.6466 0.24061 0.76494 0.65522 0.35112 1.2305 0.4146 2.4853 0.29861 3.7408-0.20691 2.236-0.56352 4.4533-1.185 6.6149-0.27196 0.9452-0.65208 1.8598-0.98361 2.7878l-0.066619 0.15675 0.0015676-0.0023512z" fill="#4F403F"/>
<path d="m18.841 15.242 0.085-0.15675-0.085 0.15675z" fill="#E27B11"/>
<path d="m5.0019 11.991c0.05016-0.18026 0.078375-0.37071 0.15675-0.53765 0.65755-1.397 1.6056-2.6376 2.7808-3.639-0.050034 0.20453-0.089794 0.41144-0.11913 0.61995-0.046241 0.48279 0.14813 0.70067 0.627 0.72732 0.09347 0.0061489 0.18734 0.0016791 0.2798-0.013324 0.55254-0.097969 1.1098-0.18105 1.6553-0.3088 0.65992-0.15675 1.3104-0.35034 1.9649-0.52825-0.63876 0.63562-1.2948 1.254-1.9131 1.91-0.96323 1.0189-1.6239 2.2008-1.8332 3.6053-0.28137 0.35661-0.57135 0.70538-0.8394 1.0737-0.14186 0.19515-0.29783 0.23513-0.51336 0.15675-0.69915-0.25332-1.2848-0.74808-1.6514-1.3951-0.29973-0.51549-0.50142-1.082-0.59487-1.671zm13.839-0.83391c-0.33579 1.6498-0.93464 3.2349-1.7736 4.6947-0.38247 0.67716-0.8825 1.2877-1.3324 1.9288l-0.078375 0.071321-1.5017 0.34877c-0.47025 0.10816-0.92953 0.24767-1.4029 0.3135-0.4052 0.057214-0.78767-0.048593-1.0447-0.44517l0.34877-0.44125c0.69117-0.092548 1.3311-0.41499 1.8167-0.91542 0.784-0.77912 1.392-1.7172 1.783-2.751 0.05643-0.14578 0.044674-0.3135 0.064268-0.4773 0.35112-0.96401 0.70067-1.9296 0.82764-2.954 0.055646-0.44987 0.064268-0.90523 0.093266-1.3575 0.071321-0.18105 0.14186-0.36131 0.21318-0.54157 0.6317 0.15126 1.1427 0.47809 1.4374 1.0683 0.16537 0.32996 0.27196 0.6897 0.40128 1.0377 0.060349 0.13716 0.10189 0.2798 0.14813 0.42009z" fill="#fdb610"/>
<path d="m16.862 8.6307c-0.071321 0.18026-0.14186 0.36053-0.21318 0.54157l-0.18026 0.25002c-0.03135-0.45536-0.055646-0.87075-0.091699-1.2846-0.011794-0.12842-0.041607-0.25453-0.088564-0.37463-0.13324-0.34563-0.34877-0.45928-0.72419-0.36836-0.63423 0.1437-1.215 0.46344-1.6757 0.92248-0.44125 0.44909-0.82764 0.95383-1.2187 1.4507-0.26099 0.33231-0.19437 0.73046-0.15675 1.1184 0.050944 0.56038 0.11991 1.1215 0.1207 1.6827 0 0.94599-0.47025 1.6984-1.0871 2.3724-0.028999 0.03135-0.1207 0.00627-0.18261 0.0078375 0.091699-0.26491 0.19672-0.52668 0.27275-0.79551 0.24438-0.81469 0.21409-1.6871-0.086213-2.4829-0.11835-0.3135-0.25864-0.40442-0.49063-0.26334-0.75005 0.45771-1.3112 1.0894-1.4476 1.9758-0.10106 0.71067-0.035589 1.4351 0.19124 2.1161l0.028999 0.24061c-0.67716-0.11364-1.1756-0.90131-1.2297-1.9155 0.20926-1.4061 0.86996-2.5864 1.8332-3.6053 0.61446-0.65757 1.272-1.2759 1.9108-1.9116 0.10502-0.078375 0.21318-0.14578 0.3135-0.2265 0.97969-0.79002 2.0934-1.3324 3.2628-1.7713 0.3809-0.14264 0.77278-0.26177 1.254-0.21867 0 0.24375 0.027431 0.47809-0.0054863 0.70538-0.090915 0.61211-0.20534 1.2219-0.30958 1.834z" fill="#4F403F"/>
<path d="m9.8016 15.499c-0.22682-0.68104-0.29229-1.4055-0.19124-2.1161 0.13637-0.88642 0.69754-1.5181 1.4476-1.9758 0.23513-0.14108 0.37228-0.05016 0.49063 0.26334 0.3003 0.79578 0.3306 1.6682 0.086213 2.4829-0.078375 0.26883-0.18105 0.5306-0.27275 0.79551-0.18183 0.12305-0.36131 0.24923-0.54471 0.36915-0.31507 0.20534-0.64346 0.30801-1.0157 0.18105z" fill="#AD5F70"/>
<path d="m15.728 13.481c-0.019594 0.15675-0.0078375 0.33153-0.064268 0.4773-0.39105 1.0338-0.99904 1.9718-1.783 2.751-0.48565 0.50043-1.1256 0.82287-1.8167 0.91542-0.57841-0.047809-1.0189-0.33074-1.3473-0.79786-0.047817-0.051742-0.084851-0.11249-0.10894-0.1787-0.021161-0.10737-0.050944-0.2414-0.0047025-0.32291 0.032134-0.057214 0.18732-0.070538 0.28372-0.061133 0.19751 0.020378 0.39188 0.084645 0.58781 0.10267 0.75946 0.068186 1.4445-0.15675 2.0573-0.5886 0.76145-0.53414 1.4153-1.2071 1.9272-1.9837 0.082171-0.11066 0.172-0.21541 0.26883-0.3135z" fill="#50413E"/>
<path d="m16.862 8.6307c0.10424-0.61211 0.21867-1.2219 0.30723-1.8355 0.032918-0.22572 0.0054862-0.46006 0.0054862-0.70538-0.47887-0.043106-0.87075 0.078375-1.254 0.21867-1.167 0.4389-2.2839 0.98047-3.2604 1.7728-0.10032 0.078375-0.20848 0.15126-0.3135 0.2265-0.65443 0.17791-1.3049 0.37307-1.9649 0.52825-0.54863 0.12775-1.1027 0.21083-1.6553 0.3088-0.092463 0.015003-0.18633 0.019473-0.2798 0.013324-0.48044-0.026648-0.67481-0.24453-0.627-0.72732 0.029336-0.20851 0.069096-0.41542 0.11913-0.61995 0.75946-0.60897 1.4946-1.254 2.2815-1.8199 1.6051-1.16 3.3286-2.1036 5.2331-2.6922 0.93464-0.27624 1.899-0.43964 2.8724-0.48671 0.85821-0.052511 1.2148 0.25629 1.2767 1.1215 0.047025 0.66619 0.064268 1.3379 0.049376 2.0056-0.04025 1.644-0.26556 3.2782-0.67168 4.8718-0.037942 0.11863-0.084301 0.23439-0.13872 0.34642-0.046241-0.14029-0.08778-0.28293-0.13951-0.42087-0.12932-0.34799-0.23513-0.70538-0.40128-1.0377-0.29626-0.59016-0.80726-0.91699-1.439-1.0683z" fill="#FCE3C2"/>
<path d="m15.663 17.873 0.1-0.091-0.1 0.091z" fill="#E27B11"/>
</g>
</svg>
