<?xml version="1.0" encoding="UTF-8"?>
<svg width="100" height="100" viewBox="0 0 32 32" xmlns="http://www.w3.org/2000/svg">
<g transform="translate(4.148 2.963)">
<path d="m9.7743 11.526c0.017587-0.62318-0.30585-1.0376-0.99403-1.2632-0.068817 0-0.13687-0.0091757-0.20569-0.008411-1.059 0.010705-1.9185 0.42743-2.4935 1.3205-0.44731 0.69505-0.14528 1.387 0.65147 1.5927 0.59336 0.15258 1.2217 0.08804 1.7717-0.18198 0.31197-0.22939 0.63924-0.44043 0.9298-0.69429 0.21737-0.19494 0.34117-0.47342 0.34026-0.7654z" fill="#FFF"/>
<path d="m22.895 11.278c-0.79499-0.96673-1.6857-1.8506-2.6586-2.638-1.0277-0.82351-2.0936-1.6011-3.1427-2.3987-0.097873-0.076464-0.19651-0.14681-0.29668-0.22251 0.27527-0.2898 0.54901-0.54901 0.7891-0.8411 0.54519-0.65147 0.72258-1.4192 0.64076-2.2503-0.035938-0.36473-0.2401-0.5903-0.60636-0.64688-0.22544-0.034809-0.45507-0.032484-0.67976 0.0068817-0.85563 0.15904-1.6554 0.47407-2.3413 1.0154-0.30203 0.23857-0.54671 0.54901-0.83422 0.8411l-1.6822-0.74628c-0.039761-0.30585-0.065759-0.65147-0.13305-0.98638-0.12613-0.59774-0.33186-1.1759-0.61171-1.7189-0.1336-0.2644-0.31809-0.49982-0.54289-0.69276h-0.4129c-0.59698 0.28218-1.0735 0.76842-1.3435 1.371-0.39073 0.82122-0.61783 1.6822-0.51613 2.6166-0.32956 0.22174-0.65988 0.44578-1.0108 0.68129-0.067288-0.10246-0.13534-0.20186-0.20033-0.30585-0.57195-0.91145-1.4192-1.4482-2.4285-1.7365-0.51536-0.14681-0.90533 0.067288-1.1011 0.56507-0.088907 0.23515-0.14525 0.48135-0.16746 0.73176-0.12158 1.2387 0.12311 2.3704 1.0055 3.3086 0.021517 0.028326 0.040454 0.058522 0.056583 0.090227-0.35785 0.43508-0.72105 0.86098-1.0705 1.2999-1.0172 1.2713-1.9132 2.635-2.6762 4.0732-0.36703 0.7027-0.68817 1.4192-0.86174 2.1968-0.008411 0.048172-0.068817 0.094815-0.068817 0.13611v1.3075c0 0.013764 0.040526 0.025233 0.043584 0.04129 0.17357 0.91221 0.72105 1.6203 1.2563 2.3367 1.1546 1.5446 2.5623 2.8414 3.999 4.1099 0.98966 0.88935 2.0499 1.6969 3.1702 2.4147 0.47985 0.31073 0.98683 0.5774 1.5147 0.79675 1.306 0.52301 2.5661 0.30968 3.7605-0.37085 0.32848-0.18735 0.63807-0.40604 0.92444-0.653 2.4606-2.1272 4.7774-4.3951 6.7357-7.0041 0.46796-0.62343 0.91145-1.2639 1.3305-1.9215 0.42942-0.65221 0.7271-1.3821 0.87627-2.1486 0.18198-1.0032-0.068053-1.8802-0.7157-2.6586zm-8.7933-5.3104c0-1.3503 0.75393-2.3574 2.0897-2.7665 0.29444-0.093033 0.59592-0.16208 0.90151-0.20645 0.38232-0.05276 0.54289 0.12311 0.44884 0.50237-0.055174 0.233-0.14706 0.45574-0.27221 0.65988-0.62725 0.97861-1.4881 1.7858-2.5049 2.349-0.01988 0.01147-0.039761 0.023704-0.059642 0.033644-0.42361 0.20722-0.57883 0.11393-0.60253-0.3655-7.647e-4 -0.068817 0.0022939-0.13381 0.0022939-0.20645h-0.0030586zm-4.1673-4.6643c0.13763-0.19498 0.27068-0.43049 0.56124-0.38232 0.27909 0.049701 0.36244 0.3005 0.43278 0.52913 0.080611 0.24951 0.14046 0.50526 0.17892 0.76464 0.048172 0.35097 0.0627 0.70729 0.089462 1.0307-0.044349 0.81128-0.14375 1.5805-0.41443 2.3199-0.030022 0.086534-0.065522 0.17107-0.10628 0.25309-0.12234 0.22939-0.26533 0.25233-0.45878 0.068053-0.049646-0.047002-0.09518-0.098164-0.13611-0.15293-0.93974-1.2494-1.1103-3.0578-0.14146-4.428l-0.0053524-0.0022939zm-5.5459 2.9576c0.019783-0.19283 0.050932-0.38432 0.093286-0.57348 0.050466-0.18581 0.19192-0.24621 0.37544-0.17892 0.10763 0.038718 0.2103 0.090052 0.30585 0.15293 0.88468 0.59106 1.478 1.3901 1.7265 2.4331 0.060406 0.25615 0.12846 0.51078 0.17204 0.76999 0.064229 0.38232-0.11775 0.54289-0.46949 0.39838-1.4222-0.58036-2.196-1.4941-2.2037-3.002zm12.477 16.975c-0.53066 0.53524-1.0399 1.098-1.6646 1.5346-0.71157 0.50815-1.5396 0.82897-2.4078 0.93286-0.27221 0.032115-0.54519 0.053524-0.81816 0.068817-0.74093 0.039761-1.4528-0.12081-2.1662-0.29668-0.16617-0.044168-0.32526-0.11161-0.47254-0.20033-0.076464-0.045878-0.18428-0.17128-0.16746-0.22557 0.047259-0.097526 0.12899-0.17408 0.22939-0.21486 0.11789-0.043556 0.2402-0.074068 0.36473-0.090992 1.0368-0.22939 2.0836-0.42055 3.1075-0.69505 1.3481-0.36167 2.6762-0.78834 4.0166-1.1859 0.041564-0.0096026 0.083708-0.016499 0.12616-0.020645l0.059642 0.064994c-0.067288 0.10934-0.11699 0.23933-0.20722 0.33032v-0.0015293zm2.9752-6.5552c-0.81051 1.3159-1.5667 2.6686-2.5608 3.8614-1.0858 1.2999-2.4759 2.0844-4.1084 2.4721-0.91756 0.21869-1.8527 0.34256-2.794 0.26609-1.8634-0.15293-3.5479-0.73252-4.938-2.0584-0.9428-0.89539-1.6791-1.9414-2.4025-3.0012-0.21486-0.31427-0.30585-0.67823-0.18886-1.0491 0.42131-1.2961 0.82122-2.5998 1.2999-3.8744 0.39704-1.082 1.0344-2.0598 1.8642-2.8597 1.0254-0.98103 2.1769-1.7587 3.5999-2.0355 0.46949-0.090992 0.95121-0.12311 1.2051-0.15293 2.4346 0.045114 4.2927 0.90456 5.8441 2.4468 0.79063 0.78605 1.3511 1.7288 1.7717 2.7596 0.27833 0.68206 0.62547 1.3243 1.1301 1.8734 0.12596 0.14908 0.22904 0.31607 0.30585 0.49548 0.14337 0.27022 0.1326 0.59622-0.028292 0.85639z" fill="#fdb610"/>
<path d="m19.563 13.328c-0.50466-0.54901-0.8518-1.1913-1.1301-1.8734-0.42055-1.0307-0.98103-1.9735-1.7717-2.7596-1.5514-1.543-3.4095-2.4025-5.8441-2.4468-0.25386 0.03135-0.73558 0.063465-1.2051 0.15293-1.423 0.27756-2.5776 1.0552-3.5999 2.0362-0.82974 0.79994-1.4671 1.7777-1.8642 2.8597-0.4779 1.2746-0.8778 2.5784-1.2999 3.8744-0.12005 0.37085-0.025998 0.73481 0.18886 1.0491 0.72411 1.0598 1.4605 2.1058 2.3994 3.0012 1.3901 1.3259 3.0746 1.9062 4.938 2.0584 0.94127 0.076464 1.8741-0.047407 2.794-0.26609 1.6325-0.38767 3.0226-1.1745 4.1084-2.4721 0.99785-1.1928 1.7541-2.5455 2.5646-3.8614 0.16065-0.26031 0.17113-0.58631 0.027527-0.85639-0.076744-0.17969-0.17983-0.34694-0.30585-0.49625zm-4.428 5.1942c-1.1194 0.78222-2.3857 1.1905-3.7429 1.3412-1.6516 0.18428-3.135-0.21486-4.4464-1.2341-0.051338-0.044326-0.10034-0.091286-0.14681-0.14069-1.1164-0.91756-1.8137-2.0859-1.9934-3.5273-0.21257-1.7051 0.35326-3.2115 1.2999-4.5832 0.77611-1.1263 1.7931-1.9621 3.1182-2.3643 2.453-0.74552 5.6032 0.063465 7.274 2.7963 0.52485 0.8501 0.85299 1.8068 0.96038 2.8001 0.0068856 0.12582 0.0068856 0.25191 0 0.37773 0.037467 1.9269-0.75852 3.4401-2.323 4.5343z" fill="#4D403F"/>
<path d="m16.889 20.86c-1.3381 0.39761-2.6686 0.82428-4.0166 1.1859-1.0238 0.2745-2.0706 0.46643-3.1075 0.69505-0.12453 0.016924-0.24684 0.047436-0.36473 0.090992-0.10041 0.040786-0.18213 0.11734-0.22939 0.21486-0.016822 0.054289 0.088698 0.17969 0.16746 0.22557 0.14728 0.088721 0.30637 0.15617 0.47254 0.20033 0.71111 0.17587 1.4253 0.33644 2.1662 0.29668 0.27297-0.015293 0.54595-0.036702 0.81816-0.068817 0.86778-0.10252 1.6958-0.42175 2.4078-0.92827 0.62471-0.43661 1.134-0.99785 1.6646-1.5346 0.090227-0.090992 0.13993-0.22098 0.20798-0.33338l-0.059642-0.064994c-0.042714 0.0041135-0.085114 0.01101-0.12693 0.020645z" fill="#e37c11"/>
<path d="m10.219 5.8953c0.19498 0.18428 0.33797 0.16363 0.45878-0.068053 0.040762-0.082024 0.076262-0.16656 0.10628-0.25309 0.27068-0.7394 0.37008-1.5086 0.41443-2.3199-0.026762-0.32344-0.04129-0.67976-0.089462-1.0307-0.036888-0.26133-0.095457-0.51914-0.1751-0.77075-0.070346-0.22939-0.15293-0.47943-0.43278-0.52913-0.29056-0.051231-0.42361 0.18428-0.56124 0.38232-0.9665 1.3718-0.79599 3.1786 0.14528 4.4349 0.040127 0.0552 0.084893 0.10687 0.13381 0.15446zm4.4892 0.64459c0.01988-0.0099403 0.039761-0.022174 0.059642-0.033644 1.0169-0.56312 1.8777-1.3703 2.5049-2.349 0.12515-0.20414 0.21704-0.42688 0.27221-0.65988 0.09405-0.38232-0.063465-0.55513-0.44884-0.50237-0.30558 0.044375-0.60707 0.11342-0.90151 0.20645-1.3358 0.40908-2.092 1.4161-2.0898 2.7665v0.20645c0.024474 0.4779 0.17969 0.57271 0.6033 0.3655zm-8.1174 0.72411c0.35173 0.14452 0.53524-0.019881 0.46949-0.39838-0.043584-0.25921-0.11164-0.51384-0.17204-0.76999-0.24851-1.043-0.8411-1.842-1.7265-2.4331-0.095554-0.062876-0.19822-0.11421-0.30585-0.15293-0.18351-0.067288-0.32497-0.0068817-0.37544 0.17892-0.042354 0.18916-0.073503 0.38065-0.093286 0.57348 0.0091756 1.5071 0.78299 2.4208 2.2037 3.002z" fill="#4C4040"/>
<path d="m14.921 12.074c-0.78146-0.14528-1.5667-0.10246-2.3474 0.029821-0.14605 0.025233-0.29438 0.035938-0.44196 0.053524 0.23933 1.6516 0.29821 3.3025-0.029821 4.9487-0.068741 0.33553-0.1615 0.66568-0.27756 0.98791-0.19269 0.54748-0.71952 0.70346-1.1859 0.35785-0.13477-0.10597-0.25485-0.2294-0.35708-0.36703-0.92521-1.1913-1.4742-2.5432-1.7105-4.0273-0.8411 0.78757-1.4528 1.7166-1.7357 2.8437-0.10934 0.43278-0.15828 0.87092-0.045114 1.3152 0.013067 0.090122 0.016145 0.18141 0.0091756 0.27221 0.046469 0.049406 0.095472 0.096367 0.14681 0.14069 1.3121 1.0216 2.7947 1.4184 4.4471 1.2341 1.3572-0.15293 2.6235-0.55895 3.7429-1.3412 1.5644-1.0942 2.3604-2.6074 2.3253-4.5335-0.18275-0.28827-0.33873-0.59795-0.5536-0.85945-0.51078-0.62241-1.2181-0.91297-1.9865-1.0552z" fill="#FD8917"/>
<path d="m17.458 13.611c-0.10728-0.99355-0.43542-1.9505-0.96038-2.8009-1.6707-2.7328-4.8172-3.5418-7.274-2.7963-1.3251 0.40296-2.3421 1.2387-3.1174 2.365-0.94738 1.3763-1.5132 2.8781-1.2999 4.5832 0.17969 1.4413 0.87704 2.6066 1.9934 3.5273 0.006969-0.090798 0.0038919-0.18209-0.0091756-0.27221-0.11317-0.44425-0.064229-0.88239 0.045114-1.3152 0.28292-1.1271 0.89386-2.0561 1.7357-2.8437-0.02141-0.35683-0.042565-0.71366-0.063465-1.0705-0.54995 0.27002-1.1783 0.33457-1.7717 0.18198-0.79675-0.20569-1.0988-0.89768-0.65147-1.5927 0.57501-0.89309 1.4345-1.3098 2.4935-1.3205 0.068817 0 0.13687 0.0053525 0.20569 0.008411 0.076077-0.38305 0.2405-0.74305 0.48019-1.0514 0.13406-0.17013 0.29466-0.31755 0.4756-0.43661 0.38691-0.25004 0.77687-0.22098 1.0881 0.11928 0.23623 0.26235 0.43489 0.55623 0.5903 0.87321 0.37391 0.75317 0.53983 1.5744 0.71417 2.3903 0.14757-0.017587 0.29591-0.028292 0.44196-0.053524 0.78069-0.13228 1.566-0.1751 2.3474-0.029821 0.76846 0.14222 1.4757 0.43278 1.9881 1.0552 0.21486 0.26151 0.37085 0.57118 0.5536 0.85945 0.0051875-0.12668 0.0034007-0.25354-0.0053524-0.38002z" fill="#FDB919"/>
<path d="m10.281 18.085c0.10223 0.13763 0.22231 0.26105 0.35708 0.36703 0.46643 0.34562 0.99403 0.18963 1.1859-0.35785 0.11606-0.32223 0.20882-0.65238 0.27756-0.98791 0.32803-1.6463 0.26915-3.2971 0.029821-4.9487-0.17434-0.81587-0.34026-1.6371-0.71417-2.3903-0.1554-0.31699-0.35407-0.61087-0.5903-0.87321-0.31121-0.34026-0.70117-0.36932-1.0881-0.11928-0.18095 0.11906-0.34154 0.26648-0.4756 0.43661-0.23969 0.30832-0.40411 0.66833-0.48019 1.0514 0.68817 0.22557 1.0086 0.64 0.99403 1.2632 0.001468 0.29124-0.12117 0.56932-0.3372 0.76464-0.29056 0.25386-0.61783 0.4649-0.9298 0.69429 0.02141 0.35683 0.042565 0.71366 0.063465 1.0705 0.23321 1.4865 0.78222 2.8383 1.7074 4.0296z" fill="#4E3F3F"/>
</g>
</svg>
