<?xml version="1.0" encoding="UTF-8"?>
<svg width="100" height="100" viewBox="0 0 32 32" xmlns="http://www.w3.org/2000/svg">
<g transform="translate(3.556 1.185)">
<path d="m0 12.587v-3.5966c0.02149-0.036841 0.058331-0.072146 0.062169-0.11052 0.051423-0.52651 0.091334-1.0515 0.14736-1.5803 0.11359-1.0193 0.29549-2.0232 0.69076-2.978 0.49812-1.2042 1.3677-1.9694 2.6456-2.2442 0.28091-0.054348 0.56661-0.080063 0.85271-0.076751 0.26236-0.00395 0.50156 0.14967 0.6071 0.3899 0.1535 0.31929 0.32159 0.63627 0.45283 0.9663 0.38376 0.95556 0.55645 1.9648 0.76751 2.9664 0.16681 0.79822 0.34947 1.5926 0.54801 2.3831 0.13739 0.53726 0.50426 0.82585 1.0691 0.86959 0.15929 0.024054 0.32066-0.027934 0.43595-0.14046 0.85578-0.81357 1.7875-1.5174 2.8974-1.9533 0.02763-0.11129 0.059866-0.2103 0.076751-0.31161 0.25722-1.5421 0.63524-3.0616 1.1305-4.5445 0.42213-1.2725 1.2395-2.1559 2.5727-2.5006 0.016885-0.0046051 0.026863-0.033003 0.040678-0.049888h1.0361c0.20416 0.062936 0.40602 0.13201 0.61401 0.18804 0.85041 0.23025 1.2848 0.82738 1.3815 1.6601 0.05782 0.54786 0.068861 1.0997 0.033003 1.6494-0.045283 0.81433-0.1535 1.6248-0.21107 2.4392-0.013784 0.29747 0.0031912 0.59557 0.050656 0.88955 0.042213 0.30701 0.24944 0.48967 0.54187 0.55722 0.20032 0.046051 0.41369 0.036841 0.61401 0.084427 0.25251 0.060634 0.53726 0.099009 0.73835 0.24253 0.73067 0.51807 1.1774 1.192 0.98626 2.149-0.0092102 0.045283-0.013815 0.091334-0.019188 0.13662-0.057564 0.44362-0.11513 0.88648-0.17423 1.3462l0.35152 0.27477c1.0791 0.84427 2.1145 1.7377 3.0424 2.7492 0.61401 0.66851 1.2365 1.3347 1.4199 2.2734 0 0.0069077 0.019188 0.011513 0.029166 0.016885v1.1743c-0.02456 0.034538-0.063704 0.066006-0.072146 0.10438-0.21951 0.98165-0.69076 1.8459-1.2503 2.6663-2.1966 3.2297-4.9121 5.982-7.8701 8.5056-0.624 0.53366-1.3714 0.90301-2.1744 1.0745-0.082726 0.023516-0.16355 0.053279-0.24177 0.089032h-1.3124c-0.023025-0.023025-0.042981-0.059866-0.069844-0.066006-0.98933-0.21183-1.8236-0.73758-2.6418-1.2979-1.7722-1.2127-3.3579-2.6449-4.8837-4.1446-0.91338-0.90907-1.7374-1.9037-2.4607-2.9703-0.32312-0.46895-0.57947-0.97321-0.64855-1.5419-0.058331-0.482-0.20416-0.931-0.34768-1.3907-0.59022-1.8842-1.1705-3.7739-1.3401-5.7564-0.028293-0.19931-0.067754-0.39687-0.1182-0.59175zm14.372 7.5984c-0.041446 0.019955-0.082124 0.041446-0.12357 0.060634-0.52114 0.23793-0.6002 0.21797-0.94174-0.24484-0.27938-0.37762-0.56566-0.75063-0.82738-1.1398-0.12817-0.18958-0.26633-0.23025-0.46588-0.1535-0.18267 0.065239-0.36917 0.11896-0.55415 0.17806-0.35152-0.33157-0.70074-0.66467-1.0546-0.99393s-0.61938-0.7253-0.66851-1.2127c-0.044252-0.4573-0.057074-0.9171-0.038376-1.3762 0.039911-1.1037 0.11052-2.2066 0.1535-3.3103 0.01228-0.31391-0.02149-0.64318-0.31545-0.83506-0.26413-0.18303-0.54909-0.33401-0.84887-0.44976-0.72914-0.25788-1.1781-0.082124-1.5688 0.58561-0.16195 0.27784-0.28935 0.57564-0.43672 0.86192-0.0419 0.07438-0.087496 0.14662-0.13662 0.21644l-0.070611-0.0061401c-0.31622-1.3178-0.65776-2.6303-0.94097-3.9558-0.30701-1.4391-0.55261-2.8905-0.84427-4.3342-0.055053-0.25806-0.14845-0.50642-0.27707-0.73681-0.16578-0.30701-0.42981-0.39143-0.76751-0.3001-0.39894 0.11849-0.76353 0.33119-1.063 0.62015-0.55722 0.51116-0.87343 1.1758-1.0584 1.8958-0.55722 2.1874-0.63704 4.4101-0.45514 6.6505 0.11129 1.3662 0.3354 2.7155 0.59099 4.0609 0.19875 1.0273 0.50567 2.0306 0.91564 2.9933 0.211 0.5331 0.65072 0.94293 1.1973 1.116 0.37071 0.12434 0.74295 0.24407 1.1183 0.35306 0.53664 0.14955 1.0159 0.45709 1.3754 0.88264 0.53726 0.63166 1.0407 1.2879 1.5581 1.9341-0.18958 0.30087-0.1205 0.57257 0.051423 0.86345 0.19879 0.3354 0.33233 0.71072 0.53726 1.0415 0.21675 0.35123 0.4608 0.68485 0.72991 0.99777 0.26019 0.3024 0.42597 0.29856 0.7867 0.10592 0.77979-0.4183 1.565-0.82585 2.344-1.2441 0.64778-0.34845 1.3048-0.35613 1.9955-0.13585 0.88494 0.28168 1.7868 0.50656 2.6779 0.76751 0.17687 0.057844 0.37113 0.018174 0.51116-0.10438 1.2683-0.95313 2.4164-2.0564 3.4193-3.2857 0.37455-0.46588 0.60787-0.98165 0.63166-1.6018 0.013815-0.34385 0.0084427-0.68079-0.0046051-1.0239-0.030701-0.7844-0.19188-1.5442-0.34231-2.3087-0.02988-0.23774-0.22179-0.42229-0.46051-0.44286-0.25862-0.050559-0.52679-6.035e-4 -0.74986 0.13969-0.050656-0.076752-0.10668-0.1535-0.14967-0.23025-0.30701-0.5695-0.41062-1.1896-0.45283-1.8267-0.062169-0.94174 0.12894-1.8543 0.31238-2.7684 0.19188-0.95863 0.39297-1.9142 0.41062-2.8989 0.0069076-0.38376-0.11896-0.67925-0.42367-0.89032-0.67311-0.46588-1.5511-0.65162-2.1813 0.30701-0.091334 0.13892-0.18958 0.274-0.29933 0.43365-0.011516-0.034813-0.020242-0.070487-0.026096-0.10668 0.011768-2.0605 0.02277-4.121 0.033003-6.1816 0.011066-0.39067-0.0032916-0.78165-0.042981-1.1705-0.097474-0.76137-0.61401-1.2227-1.3739-1.1467-1.0454 0.10438-1.9326 0.51577-2.3793 1.5581-0.094094 0.20977-0.17459 0.42537-0.241 0.64548-0.26044 0.90567-0.51628 1.8131-0.76751 2.7224-0.42597 1.5458-0.6332 3.1299-0.84427 4.7141-0.241 1.7852-0.29166 3.5774-0.25865 5.3726 0.01228 0.69076 0.22488 1.3178 0.70842 1.8228 0.41292 0.43058 0.84427 0.84427 1.2887 1.2464 0.41446 0.38529 0.82124 0.77058 1.1083 1.2687z" fill="#fdb610"/>
<path d="m7.8233 23.548c-0.5173-0.64625-1.0231-1.3048-1.5581-1.9341-0.35952-0.42555-0.83875-0.73309-1.3754-0.88264-0.37531-0.10899-0.74756-0.23025-1.1183-0.35306-0.54612-0.17253-0.98575-0.58144-1.1973-1.1137-0.40997-0.96267-0.7169-1.966-0.91564-2.9933-0.25558-1.3455-0.4797-2.6947-0.59099-4.0609-0.1819-2.2404-0.10208-4.4631 0.45514-6.6505 0.18497-0.72377 0.50119-1.3815 1.0661-1.9004 0.29948-0.28897 0.66407-0.50166 1.063-0.62015 0.3354-0.091334 0.59943 0 0.76751 0.3001 0.12863 0.23039 0.22202 0.47875 0.27707 0.73681 0.28859 1.4437 0.53726 2.8951 0.84427 4.3342 0.28321 1.3255 0.62476 2.6379 0.94097 3.9558l0.070611 0.0061401c0.049121-0.069822 0.094717-0.14206 0.13662-0.21644 0.14736-0.28628 0.27477-0.58408 0.43672-0.86192 0.39066-0.66774 0.83966-0.84427 1.5688-0.58561 0.29978 0.11575 0.58474 0.26673 0.84887 0.44976 0.29396 0.19188 0.32773 0.52114 0.31545 0.83506-0.045283 1.1037-0.11589 2.2066-0.1535 3.3103-0.018698 0.45906-0.0058763 0.91885 0.038376 1.3762 0.049121 0.48737 0.31238 0.88111 0.66851 1.2127 0.35613 0.33157 0.70304 0.66236 1.0546 0.99393 0.22104 0.32082 0.47049 0.63013 0.53035 1.0308 0.11155 0.65986 0.048848 1.3374-0.1819 1.9656-0.027631 0.076751-0.11513 0.12434-0.17499 0.18574-0.092102-0.29549-0.19725-0.58715-0.274-0.88648-0.20032-0.77672-0.64087-1.3815-1.2603-1.8804-0.35551-0.28968-0.6962-0.59707-1.0208-0.92102-0.38376-0.38376-0.64778-0.83889-0.68616-1.39-0.02456-0.35306 0-0.71072 0.0053726-1.0661 0.020723-0.85962 0.046818-1.7192 0.070611-2.5788 0.010745-0.2978 0.035306-0.59636 0.028398-0.89492-0.0053726-0.23486-0.1535-0.29549-0.34461-0.15811-0.047622 0.032777-0.088958 0.073854-0.12203 0.12127-0.6048 0.9379-1.2526 1.862-1.0968 3.0701 0.0049911 0.06873 0.0049911 0.13773 0 0.20646-0.17116 0.13432-0.22411-0.038376-0.28168-0.12587-0.13892-0.2103-0.2433-0.44362-0.38376-0.65085-0.2774-0.42147-0.49176-0.88121-0.63627-1.3646-0.26633-0.81587-0.55491-1.6248-0.83352-2.4369-0.076751-0.31161-0.16962-0.62092-0.23563-0.9356-0.35357-1.6676-0.69972-3.3343-1.0384-5.0004-0.031468-0.1535-0.029933-0.32082-0.23639-0.42981-0.0846 0.087528-0.15972 0.18375-0.22411 0.28705-0.072027 0.1564-0.13132 0.31836-0.1773 0.4843-0.41753 1.39-0.56259 2.8175-0.59022 4.2582-0.04359 2.0615 0.18872 4.1195 0.69076 6.1194 0.16348 0.65546 0.39066 1.2948 0.58945 1.941 0.16195 0.61785 0.49428 1.1052 1.0745 1.393 0.20517 0.10597 0.41876 0.19479 0.63857 0.26556 1.0085 0.30701 1.7722 0.94711 2.4054 1.7607 0.26786 0.34385 0.51654 0.70228 0.77519 1.0538 0.47279 0.64318 1.1014 0.92716 1.8896 0.76751 0.23946-0.048353 0.45667-0.20262 0.69076-0.29626 0.089799-0.036073 0.17653-0.18497 0.29242-0.036073-0.047586 0.49044-0.29626 0.88878-0.6025 1.251-0.67388 0.79514-1.3408 0.8719-2.1575 0.24253-0.2717-0.20876-0.51193-0.45897-0.76598-0.69zm6.5484-3.3625c-0.28705-0.49505-0.69076-0.88034-1.1121-1.2603-0.44209-0.40525-0.87573-0.81894-1.2864-1.2495-0.48353-0.50502-0.69614-1.129-0.70842-1.8228-0.033003-1.7968 0.017653-3.5889 0.25865-5.3726 0.21414-1.5841 0.42137-3.1683 0.84427-4.7141 0.25021-0.90874 0.50605-1.8162 0.76751-2.7224 0.066406-0.22011 0.14691-0.43571 0.241-0.64548 0.44976-1.0423 1.337-1.4537 2.3793-1.5581 0.7583-0.076751 1.2764 0.38376 1.3739 1.1467 0.039689 0.38881 0.054046 0.77979 0.042981 1.1705-0.0076752 2.06-0.018676 4.1205-0.033003 6.1816 0.0058531 0.036198 0.014579 0.071872 0.026095 0.10668 0.10975-0.15964 0.208-0.29473 0.29933-0.43365 0.63013-0.9617 1.5082-0.77596 2.1813-0.30701 0.30701 0.21107 0.43058 0.50733 0.42367 0.89032-0.017653 0.98472-0.21874 1.9403-0.41062 2.8989-0.18344 0.91411-0.37455 1.8267-0.31238 2.7684 0.042213 0.63704 0.14506 1.2572 0.45283 1.8267 0.042981 0.076752 0.099009 0.1535 0.14967 0.23025 0.020334 0.064945 0.046006 0.1281 0.076752 0.18881 0.22059 0.35016 0.3477 0.75103 0.36917 1.1643 0.048353 0.85194-0.30701 1.5588-0.75447 2.2381-0.034538 0.052958-0.12817 0.067541-0.19495 0.10054-0.0099777-0.21797-0.01842-0.43595-0.031468-0.65315-0.062936-1.0515-0.23025-2.0761-0.75293-3.0133-0.11776-0.22436-0.22382-0.45467-0.31775-0.69-0.21183-0.49121-0.34922-1.0039-0.29703-1.5404 0.083659-0.85578 0.18497-1.7108 0.29856-2.5627 0.062936-0.47663 0.16578-0.94711 0.25098-1.4207 0.011273-0.0075737 0.016755-0.02128 0.013815-0.034538l0.035306-0.10592c0.055261-0.28014 0.12203-0.55798 0.1535-0.84043-0.0018299-0.096691-0.051593-0.18615-0.13278-0.2387-0.076752-0.033003-0.19955 0-0.28398 0.041446-0.064391 0.047646-0.11541 0.11109-0.14813 0.1842-0.23025 0.38376-0.46818 0.76137-0.69076 1.1513-0.092361 0.14511-0.15497 0.30712-0.1842 0.47663-0.064471 0.59175-0.10131 1.1866-0.1489 1.7799l-0.071379 0.35152-0.076751 0.017653c-0.074001-0.096478-0.13949-0.1992-0.19572-0.30701-0.12894-0.30701-0.27477-0.61017-0.35613-0.92946-0.1489-0.58715-0.25635-1.185-0.38376-1.7783-0.065239-0.72146-0.14736-1.4414-0.19188-2.1636-0.12127-1.9395-0.18497-3.8806-0.057564-5.8239 0.015912-0.12573 0.019511-0.25272 0.010745-0.37915-0.029933-0.23793-0.19341-0.34154-0.41906-0.26326-0.095171 0.038735-0.18254 0.094382-0.25788 0.16425-0.32233 0.28145-0.56126 0.64595-0.69076 1.0538-0.35996 1.0745-0.76751 2.1444-1.0285 3.2451-0.52498 2.1828-0.789 4.4086-0.89185 6.652-0.035306 0.76751-0.02763 1.5404 0.13892 2.3025l0.038376 0.088264c-0.0054086 0.4069 0.14099 0.80121 0.41062 1.106 0.37529 0.41751 0.77647 0.811 1.2012 1.1781 0.44573 0.37596 0.82304 0.82623 1.1152 1.3309 0.28475 0.49888 0.57717 0.9924 0.86499 1.4882 0.19844 0.37448 0.56487 0.63067 0.98472 0.68846 0.5434 0.072146 1.0945 0.082124 1.6425 0.11896 0 0.274-0.16425 0.45667-0.37148 0.58254-0.33349 0.20083-0.6773 0.384-1.03 0.54877-0.57794 0.2717-1.086 0.14506-1.5442-0.28935-0.40398-0.39321-0.75279-0.83936-1.0369-1.3263-0.20723-0.34615-0.43058-0.68079-0.64164-1.0162z" fill="#4F403F"/>
<path d="m19.447 21.006c0.066774-0.033003 0.16041-0.047586 0.19495-0.10054 0.44593-0.67925 0.80282-1.3861 0.75447-2.2381-0.021477-0.41329-0.14858-0.81416-0.36917-1.1643-0.030746-0.060712-0.056417-0.12386-0.076751-0.18881 0.22307-0.14029 0.49124-0.19025 0.74986-0.13969 0.23872 0.02057 0.43063 0.20512 0.46051 0.44286 0.1535 0.76751 0.31161 1.5243 0.34231 2.3087 0.013048 0.34308 0.01842 0.68002 0.0046051 1.0239-0.023793 0.62015-0.25712 1.1359-0.63166 1.6018-1.0019 1.2291-2.149 2.3324-3.4162 3.2857-0.14053 0.12339-0.33591 0.16311-0.51347 0.10438-0.89108-0.26172-1.7929-0.4866-2.6779-0.76751-0.69537-0.22028-1.3493-0.2126-1.9955 0.13585-0.77903 0.4183-1.5642 0.82585-2.344 1.2441-0.36073 0.19265-0.52651 0.19648-0.7867-0.10592-0.26911-0.31292-0.51316-0.64654-0.72991-0.99777-0.20416-0.3308-0.33771-0.70611-0.53726-1.0415-0.17192-0.29089-0.241-0.56259-0.051423-0.86345 0.25405 0.23025 0.49428 0.48123 0.76751 0.69076 0.81433 0.6309 1.4813 0.55415 2.1536-0.2387 0.30701-0.36227 0.55491-0.76061 0.6025-1.251l0.28782-0.68309c0.059866-0.061401 0.14736-0.11206 0.17499-0.18574 0.23075-0.62819 0.29345-1.3057 0.1819-1.9656-0.059866-0.40064-0.30701-0.70995-0.53035-1.0308 0.18497-0.059099 0.37148-0.11282 0.55415-0.17806 0.19955-0.072146 0.33771-0.034538 0.46588 0.1535 0.26172 0.38913 0.54801 0.76214 0.82738 1.1398 0.34154 0.46051 0.4206 0.48277 0.94174 0.24484 0.041446-0.019188 0.082124-0.040678 0.12357-0.060634 0.21414 0.33847 0.43441 0.67311 0.64164 1.0154 0.28412 0.48691 0.63294 0.93306 1.0369 1.3263 0.46051 0.43441 0.9663 0.56105 1.5442 0.28935 0.3527-0.16477 0.69651-0.34794 1.03-0.54877 0.20723-0.12587 0.37301-0.30701 0.37148-0.58254l0.44823-0.67465z" fill="#e37c11"/>
<path d="m11.632 22.064-0.28782 0.68309c-0.11589-0.1489-0.20262 0-0.29242 0.036073-0.23025 0.093637-0.44976 0.24791-0.69076 0.29626-0.78824 0.15964-1.4168-0.12434-1.8896-0.76751-0.25865-0.35152-0.50733-0.70995-0.77519-1.0538-0.63166-0.81357-1.3953-1.4521-2.4008-1.763-0.21779-0.071826-0.42931-0.16141-0.63243-0.26786-0.58408-0.28782-0.91641-0.77519-1.0745-1.393 0.062936 0.049121 0.12817 0.094404 0.18804 0.14736 0.38759 0.33847 0.73144 0.24714 0.87343-0.25635 0.096298-0.35369 0.12802-0.72185 0.093637-1.0868-0.061401-0.74295-0.082124-1.489-0.092869-2.2342-0.0069076-0.46972 0.031468-0.94021 0.053726-1.4099 0.029933-0.62936 0.064471-1.2587 0.097474-1.8889 0.27861 0.81203 0.56719 1.621 0.83352 2.4369 0.14451 0.48343 0.35887 0.94317 0.63627 1.3646 0.14276 0.20723 0.24714 0.44055 0.38376 0.65085 0.057564 0.087497 0.11052 0.26019 0.28168 0.12587 0.041446 0.039911 0.082124 0.076752 0.12434 0.11896 0.28552 0.26402 0.50119 0.21797 0.65239-0.1489 0.069076-0.16962 0.11129-0.34999 0.16809-0.52421 0.19597-0.59764 0.39246-1.1953 0.58945-1.7929-0.023793 0.85962-0.049888 1.7192-0.070611 2.5788-0.0084427 0.35536-0.029933 0.71302-0.0053726 1.0661 0.038376 0.55108 0.30087 1.0093 0.68616 1.39 0.32459 0.32394 0.66529 0.63134 1.0208 0.92102 0.61938 0.49812 1.0599 1.1037 1.2603 1.8804 0.072914 0.30394 0.1773 0.59559 0.2694 0.89108z" fill="#D8A87C"/>
<path d="m4.7954 11.107c-0.033003 0.63013-0.067541 1.2595-0.097474 1.8889-0.022258 0.46972-0.060634 0.94021-0.053726 1.4099 0.010745 0.74526 0.031468 1.4913 0.092869 2.2342 0.034661 0.36571 0.0029385 0.73468-0.093637 1.0891-0.14199 0.50349-0.48584 0.59482-0.87343 0.25635-0.059866-0.052959-0.1251-0.098242-0.18804-0.14736-0.19879-0.64625-0.42597-1.2879-0.58868-1.9433-0.50204-1.9999-0.73435-4.0579-0.69076-6.1194 0.030701-1.4406 0.17576-2.8697 0.59252-4.2582 0.045232-0.16587 0.10375-0.32783 0.17499-0.4843 0.063427-0.10316 0.13751-0.19937 0.22104-0.28705 0.20646 0.10899 0.20493 0.27784 0.23639 0.42981 0.34333 1.666 0.68744 3.3313 1.0323 4.9958 0.066006 0.31468 0.15657 0.62399 0.23563 0.9356z" fill="#FCE3C2"/>
<path d="m8.4672 13.339c-0.19648 0.59815-0.39297 1.1958-0.58945 1.7929-0.056796 0.17423-0.099009 0.35459-0.16809 0.52421-0.1535 0.36687-0.36687 0.41292-0.65239 0.1489-0.042213-0.038376-0.082892-0.076751-0.12434-0.11896 0.0049911-0.06873 0.0049911-0.13773 0-0.20646-0.1535-1.2104 0.49198-2.1345 1.0968-3.0701 0.033077-0.047414 0.074413-0.08849 0.12203-0.12127 0.18881-0.13739 0.33924-0.076752 0.34461 0.15811 0.0061401 0.29473-0.01842 0.59482-0.029166 0.89262z" fill="#FBE2C1"/>
<path d="m12.732 15.685c-0.16655-0.75907-0.17423-1.5297-0.13892-2.3025 0.10285-2.2434 0.36687-4.4692 0.89185-6.652 0.26479-1.1006 0.66851-2.169 1.0285-3.2451 0.12951-0.40785 0.36843-0.77234 0.69076-1.0538 0.075343-0.069866 0.16271-0.12551 0.25788-0.16425 0.22565-0.076751 0.38913 0.025328 0.41906 0.26326 0.012284 0.12583 0.012284 0.25256 0 0.37838-0.12741 1.9433-0.063704 3.8844 0.057564 5.8239 0.044516 0.72223 0.12664 1.4422 0.19188 2.1636-0.016885 0.12434-0.030701 0.24944-0.050656 0.37378-0.18497 1.1597-0.52114 2.2788-0.92102 3.3771-0.052191 0.14429-0.13432 0.32236-0.25481 0.38376-0.1205 0.061401-0.29549-0.010745-0.48123-0.026863-0.035306 0.20109-0.072146 0.42367-0.11359 0.64548-0.12434 0.67004-0.6639 0.86115-1.1827 0.4206l-0.36227-0.30701-0.032236-0.078286z" fill="#FCE3C2"/>
<path d="m12.768 15.772 0.36227 0.30701c0.51884 0.44055 1.0584 0.24944 1.1827-0.4206 0.041446-0.22181 0.076751-0.44439 0.11359-0.64548 0.18574 0.016118 0.36841 0.086729 0.48123 0.026863 0.11282-0.059866 0.20262-0.24177 0.25481-0.38376 0.39911-1.1014 0.73528-2.2204 0.92102-3.3771 0.019955-0.12434 0.033771-0.24944 0.050656-0.37378 0.1251 0.59329 0.23025 1.1912 0.38376 1.7783 0.081357 0.31929 0.23025 0.62399 0.35613 0.92946 0.056231 0.10781 0.12172 0.21053 0.19572 0.30701l0.076752-0.017653 0.071379-0.35152c0.036841-0.056796 0.076752-0.11129 0.10899-0.17116 0.28628-0.54417 0.56336-1.0922 0.85885-1.631 0.11743-0.21414 0.27477-0.40755 0.41369-0.61017-0.085194 0.47356-0.18804 0.94404-0.25098 1.4207-0.11359 0.85194-0.2149 1.707-0.29856 2.5627-0.052191 0.53726 0.085194 1.0492 0.29703 1.5404 0.094284 0.2343 0.2006 0.46358 0.31852 0.68693 0.52575 0.93714 0.69076 1.9618 0.75293 3.0133 0.013048 0.21721 0.02149 0.43518 0.031468 0.65315l-0.4513 0.67618c-0.54801-0.036841-1.0991-0.046818-1.6425-0.11896-0.42224-0.058739-0.78998-0.3181-0.98702-0.69614-0.28782-0.49581-0.58024-0.98933-0.86499-1.4882-0.29456-0.50675-0.67504-0.95838-1.1244-1.3347-0.42469-0.36714-0.82587-0.76062-1.2012-1.1781-0.2691-0.30419-0.41545-0.69758-0.41062-1.1037z" fill="#D8A87C"/>
<path d="m18.597 11.129c-0.13892 0.20262-0.29626 0.39604-0.41369 0.61017-0.29549 0.53726-0.57257 1.0868-0.85885 1.631-0.031468 0.059866-0.072146 0.11436-0.10899 0.17116 0.047586-0.59329 0.084427-1.1881 0.1489-1.7799 0.02923-0.16951 0.091843-0.33152 0.1842-0.47663 0.22104-0.38836 0.46051-0.76751 0.69076-1.1513 0.03272-0.073115 0.083739-0.13656 0.14813-0.1842 0.084427-0.040678 0.20876-0.076751 0.28398-0.041446 0.081187 0.052547 0.13095 0.14201 0.13278 0.2387-0.034538 0.28245-0.10131 0.56029-0.1535 0.84043l-0.035306 0.10592c0.0028281 0.014821-0.0047559 0.029673-0.01842 0.036073z" fill="#F9E0C0"/>
<path d="m18.617 11.094 0.046-0.10592-0.046 0.10592zm-5.8796 4.5905 0.05 0.1-0.05-0.1z" fill="#D8A87C"/>
</g>
</svg>
