<?xml version="1.0" encoding="UTF-8"?>
<svg width="100" height="100" viewBox="0 0 32 32" xmlns="http://www.w3.org/2000/svg">
<g transform="translate(4.148 4.148)">
<path d="m10.654 0h1.2705c0.0047025 0.010189 0.0086212 0.028999 0.015675 0.030566 1.0973 0.22494 2.0566 0.77435 3.0104 1.3214 1.8904 1.0824 3.6421 2.3693 5.3413 3.7275 1.1842 0.93049 2.2664 1.984 3.2283 3.1428 0.63249 0.77356 0.89269 1.6459 0.68892 2.6311-0.094429 0.44692-0.23035 0.88406-0.40598 1.3057-0.33936 0.81824-0.84959 1.5393-1.3661 2.2541-2.1161 2.9344-4.6665 5.4659-7.397 7.8218-0.28514 0.24549-0.59297 0.46331-0.91934 0.65051-1.4468 0.8347-2.9312 0.93031-4.436 0.15675-0.37521-0.19451-0.74014-0.40823-1.0933-0.64032-1.7587-1.149-3.3325-2.5245-4.8522-3.9666-1.0777-1.0171-2.0513-2.1393-2.9062-3.3498-0.33515-0.4544-0.58504-0.96586-0.73751-1.5095-0.024795-0.06039-0.056907-0.11751-0.095618-0.17007v-1.4108c0.040755-0.091699 0.088564-0.18026 0.12148-0.27353 0.14264-0.40912 0.24453-0.83705 0.42871-1.2266 1.6741-3.541 4.0598-6.5286 7.0843-9.0061 0.87232-0.71557 1.8489-1.2454 2.9806-1.4374 0.015675-0.0023513 0.025864-0.033701 0.039188-0.051728zm12.513 10.277c0.0084225-0.33227-0.10599-0.65597-0.32134-0.90915-0.23513-0.29077-0.4773-0.58938-0.76573-0.82294-0.79472-0.64268-1.6075-1.2634-2.4296-1.8747-1.1545-0.86213-2.4296-1.4711-3.8467-1.7611-0.65914-0.13481-1.3214-0.24453-1.9907-0.10032-0.49298 0.10659-0.98518 0.22572-1.4664 0.3762-1.1213 0.3588-2.2963 0.52056-3.4728 0.47809-0.75162-0.029783-1.5056 0-2.2572-0.028999-0.56872-0.024494-1.1282 0.14981-1.5824 0.49298-0.99615 0.72811-1.7399 1.6741-2.334 2.7431-0.14656 0.26491-0.22964 0.56117-0.52276 0.72654-0.090915 0.050944-0.14735 0.18183-0.19437 0.28685-0.1011 0.22494-0.21867 0.44987-0.27118 0.68735-0.097514 0.46004-0.30847 0.88841-0.61368 1.2462-0.26569 0.3135-0.43028 0.69597-0.3135 1.1121 0.076646 0.27046 0.20347 0.5241 0.37385 0.7477 0.41852 0.53687 0.8684 1.0502 1.3175 1.5628 0.16358 0.18436 0.34325 0.3538 0.53687 0.5063 0.43905 0.3737 1.0429 0.48755 1.5879 0.29939 0.53765-0.16537 1.0894-0.28293 1.6326-0.43028 1.8525-0.50361 3.7598-0.77788 5.6791-0.81667 0.58703-0.011756 1.1756-0.042322 1.7603-0.078375 1.5025-0.081169 3.0094-0.011326 4.4979 0.20848 0.35974 0.05016 0.72184 0.13559 1.08 0.12383 0.49533-0.016459 0.92091-0.26648 1.3002-0.57606 0.77348-0.6358 1.4357-1.396 1.9594-2.2494 0.34563-0.55725 0.63876-1.1529 0.65678-1.95zm-15.064 8.5609c0.18497-0.024296 0.3135-0.01881 0.42009-0.057998 0.33074-0.11991 0.65051-0.27039 0.98282-0.38482 0.48514-0.16772 0.97028-0.41304 1.4688-0.45301 1.3018-0.10901 2.6122 0.040419 3.8561 0.43968 0.3182 0.10189 0.6466 0.17243 0.96872 0.25707 0.072889-0.27745 0.078375-0.28058-0.021945-0.43498-0.15579-0.26236-0.32558-0.51614-0.50865-0.76024-0.23513-0.29156-0.49063-0.57057-0.85664-0.71321-0.78317-0.31566-1.5935-0.55911-2.421-0.72732-0.54863-0.10581-0.97812 0.03762-1.4108 0.3378-0.88799 0.61133-1.6192 1.3849-2.3238 2.1882-0.055646 0.065051-0.079943 0.15832-0.15362 0.3088z" fill="#fdb610"/>
<path d="m23.168 10.277c-0.018026 0.79708-0.3135 1.3927-0.65835 1.95-0.52371 0.85337-1.1859 1.6136-1.9594 2.2494-0.37934 0.3135-0.80491 0.5596-1.3002 0.57606-0.35817 0.011756-0.72027-0.073673-1.08-0.12383-1.4886-0.2198-2.9954-0.28965-4.4979-0.20848-0.58625 0.036053-1.1756 0.066619-1.7603 0.078375-1.9162 0.039556-3.8202 0.31382-5.6697 0.81667-0.54314 0.14735-1.0973 0.26491-1.6326 0.43028-0.54499 0.18816-1.1488 0.074304-1.5879-0.29939-0.19362-0.15251-0.37329-0.32194-0.53687-0.5063-0.44674-0.51257-0.89975-1.0259-1.3183-1.5628-0.17004-0.22265-0.29684-0.4752-0.37385-0.74456-0.11991-0.41617 0.044674-0.79864 0.3135-1.1121 0.30521-0.35776 0.51616-0.78613 0.61368-1.2462 0.052511-0.23513 0.17007-0.46241 0.27118-0.68735 0.047025-0.10502 0.10346-0.23513 0.19437-0.28685 0.29312-0.16537 0.3762-0.46163 0.52276-0.72654 0.59408-1.069 1.3379-2.015 2.334-2.7431 0.45418-0.34317 1.0137-0.51747 1.5824-0.49298 0.75162 0.026648 1.5056 0 2.2572 0.028999 1.1765 0.042472 2.3515-0.11928 3.4728-0.47809 0.48122-0.15048 0.97342-0.26961 1.4664-0.3762 0.66932-0.14421 1.3324-0.034485 1.9907 0.10032 1.4186 0.28999 2.6922 0.89896 3.8467 1.7611 0.81824 0.61133 1.631 1.2321 2.4296 1.8747 0.28842 0.23513 0.52982 0.53217 0.76573 0.82294 0.21208 0.25338 0.3239 0.57573 0.31428 0.90602zm-4.9549-2.6648-0.85429-0.41774-1.544-0.64111c-0.55871-0.21978-1.1684-0.27632-1.758-0.16302l-1.5675 0.39188c-0.11581 0.0071193-0.23117 0.020199-0.34563 0.039188-1.4672 0.31977-2.9422 0.54863-4.4525 0.44752-0.32526-0.021945-0.65365 0.0086213-0.98126 0.014891-0.35347 0.0047025-0.69519 0.054079-0.99615 0.26099-0.11575 0.051947-0.2276 0.11219-0.33466 0.18026-0.51575 0.38989-0.93001 0.89824-1.2078 1.4821-0.061006 0.15021-0.10976 0.30512-0.14578 0.4632-0.088564 0.47809 0.039971 0.92639 0.22415 1.3528 0.11284 0.245 0.26331 0.47084 0.44595 0.66932 0.20456 0.23513 0.33623 0.20534 0.48906-0.057214 0.13559-0.23513 0.25629-0.47495 0.37855-0.71635 0.29156-0.57527 0.56587-1.16 0.87388-1.7243 0.21083-0.39188 0.45066-0.39736 0.73281-0.050944 0.20769 0.25472 0.39188 0.52903 0.59722 0.78375 0.30723 0.38247 0.48906 0.38012 0.82059 0.019594 0.33153-0.36053 0.68343-0.74378 1.0369-1.1035 0.25394-0.25942 0.40833-0.27666 0.71792-0.078375 0.17514 0.11642 0.34006 0.24751 0.49298 0.39188 0.20064 0.18026 0.38482 0.37934 0.58703 0.55803 0.3135 0.2751 0.44909 0.25629 0.67638-0.078375 0.13089-0.19515 0.2461-0.4005 0.37698-0.59487 0.11617-0.18957 0.24721-0.36961 0.39188-0.53844 0.2265-0.2414 0.43106-0.2508 0.67168-0.024296 0.22745 0.21898 0.44328 0.44972 0.6466 0.69127 0.40755 0.47025 0.80491 0.94912 1.2156 1.4162 0.10923 0.1222 0.2357 0.22781 0.37542 0.3135 0.25629 0.15675 0.41147 0.10973 0.52825-0.16772 0.090417-0.20379 0.15899-0.41659 0.20456-0.63484 0.12775-0.67951 0.23513-1.3629 0.35426-2.0448 0.030566-0.17556 0.029782-0.36915 0.19829-0.51414 0.088564 0.083861 0.16224 0.15675 0.23513 0.22415l0.21005 0.48828c0.023512 0.15675 0.047025 0.3135 0.070538 0.47025 0.034404-0.006705 0.068023-0.016948 0.10032-0.030566 0.19986-0.14421 0.39815-0.28999 0.59722-0.4342 0.33701-0.24453 0.33701-0.24453 0.68735-0.13245-0.13402-0.20769-0.28842-0.31115-0.75005-0.51414v0.0023512zm-14.405 4.3146-0.05643-0.091699c-0.23515-0.39437-0.54346-0.74019-0.90837-1.0189-0.31964 0.38669-0.46667 0.88757-0.40677 1.3857 0.058781 0.61368 0.33623 1.1686 0.74378 1.638 0.3135 0.35739 0.69362 0.59016 1.1937 0.5549 0.52276 0.026648 1.0071-0.14029 1.4891-0.30018 0.12383-0.033701 0.24767-0.065835 0.3715-0.1011 2.4477-0.69362 4.929-1.1388 7.4872-1.0189 0.33936 0.015675 0.67951 0.0078375 1.0189 0.010972 1.0769 0.043368 2.1537 0.086474 3.2306 0.12932 0.034695-0.0028981 0.068908-0.010004 0.10189-0.021161h0.25394c0.40755-0.026648 0.81589-0.045458 1.2219-0.078375 0.42244-0.036836 0.7477-0.26099 1.0189-0.57371 0.37643-0.45226 0.6735-0.96504 0.87859-1.5166 0.037726-0.13171 0.065239-0.26613 0.082294-0.40206-0.23983 0.10424-0.41225 0.15205-0.55333 0.2461-0.24482 0.16064-0.47673 0.34014-0.69362 0.53687-0.38796 0.35817-0.51336 0.33936-0.72027-0.15675-0.086213-0.20613-0.15675-0.42009-0.24767-0.62151-0.088705-0.20446-0.19628-0.4002-0.32134-0.58468-0.24375-0.33701-0.51884-0.38169-0.84567-0.1254-0.35504 0.27588-0.66854 0.60662-0.79002 1.0769-0.1434 0.52308-0.38695 1.0134-0.71713 1.4437-0.18418 0.24767-0.29391 0.27588-0.57057 0.13559-0.17114-0.077712-0.33071-0.17873-0.47417-0.30018-0.47887-0.44987-0.9405-0.91542-1.4108-1.3747-0.17556-0.17243-0.33623-0.36523-0.53217-0.50944-0.26412-0.19437-0.42871-0.16459-0.64503 0.078375-0.1638 0.18418-0.30253 0.39188-0.46476 0.57527-0.3135 0.35974-0.55568 0.39188-0.95226 0.12618-0.20378-0.13716-0.39188-0.3041-0.58546-0.45222-0.10267-0.078375-0.21396-0.14029-0.32134-0.20926l-0.18026-0.098753c-0.32761-0.21005-0.47574-0.20221-0.73359 0.060349-0.32918 0.33466-0.64659 0.68108-0.97812 1.0126-0.3088 0.3088-0.45222 0.3135-0.79237 0.06897-0.10424-0.078375-0.20142-0.16145-0.3041-0.23983-0.49298-0.3762-0.71243-0.34407-1.0698 0.15675-0.054863 0.078375-0.10894 0.15675-0.15675 0.23513-0.29939 0.47652-0.59565 0.95539-0.89661 1.4319-0.17634 0.28058-0.34172 0.34093-0.60819 0.15283-0.2323-0.17647-0.44488-0.37749-0.63405-0.59957-0.18732-0.20613-0.34799-0.43655-0.52041-0.656l-7.8375e-4 -0.0054862zm15.329-3.6491c0.14343 0.15675 0.27666 0.30018 0.40677 0.44595 0.19515 0.21788 0.37463 0.45066 0.58468 0.65208 0.21005 0.20142 0.35974 0.20378 0.627 0.023513-0.65678-0.63484-1.3175-1.0965-1.6184-1.1215z" fill="#4D4040"/>
<path d="m8.1032 18.837c0.073673-0.15048 0.097969-0.24375 0.15675-0.3088 0.70538-0.80335 1.4358-1.5769 2.3238-2.1882 0.43498-0.30018 0.86213-0.4436 1.4108-0.3378 0.8264 0.16839 1.6357 0.41184 2.4179 0.72732 0.36601 0.14264 0.62151 0.42166 0.85664 0.71321 0.18307 0.2441 0.35287 0.49788 0.50865 0.76024 0.099536 0.15675 0.094834 0.15675 0.021945 0.43498-0.32212-0.084645-0.65051-0.15675-0.96872-0.25707-1.2438-0.39927-2.5543-0.54869-3.8561-0.43968-0.49847 0.039971-0.98361 0.28529-1.4688 0.45301-0.33231 0.11443-0.65208 0.26491-0.98282 0.38482-0.10973 0.039188-0.23513 0.030566-0.42009 0.057998z" fill="#e37c11"/>
<path d="m14.744 12.979c-0.33936 0-0.67951 0.0047025-1.0189-0.010972-2.5582-0.11678-5.0395 0.32839-7.4872 1.0189-0.12383 0.035269-0.24767 0.067403-0.3715 0.1011 0.01881-0.15126 0.039188-0.30174 0.05643-0.45301 0.10032-0.89583 0.48828-1.6561 1.0925-2.3121 0.13559-0.14735 0.26726-0.14891 0.3762 0.022729 0.16302 0.25629 0.28764 0.5353 0.4342 0.80256 0.14656 0.26726 0.28293 0.51179 0.43733 0.75946 0.042323 0.068186 0.13324 0.10659 0.25472 0.19829 0.16145-0.36836 0.29939-0.68813 0.44282-1.0056 0.24061-0.53452 0.47887-1.069 0.86918-1.5197 0.18261-0.21083 0.39188-0.33623 0.67481-0.2751l0.17791 0.098753c0.070538 0.14264 0.13637 0.2892 0.21396 0.42871 0.25707 0.46085 0.51492 0.92169 0.77983 1.3771 0.073673 0.12618 0.14029 0.28215 0.37228 0.25942 0.054079-0.091699 0.12383-0.19751 0.18026-0.3135 0.18105-0.35582 0.34485-0.72027 0.53844-1.069 0.10537-0.18211 0.23306-0.35035 0.38012-0.50082 0.18575-0.19594 0.2751-0.18261 0.45771 0.024296 0.052161 0.063669 0.10083 0.13012 0.14578 0.19907 0.46026 0.65669 0.79678 1.3919 0.99301 2.1694z" fill="#E3DEDE"/>
<path d="m17.295 7.7591-0.23513-0.22415c-0.16851 0.14499-0.16772 0.33858-0.19829 0.51414-0.11913 0.68186-0.2265 1.3653-0.35426 2.0448-0.045573 0.21824-0.11414 0.43104-0.20456 0.63484-0.11678 0.27745-0.27196 0.32604-0.52825 0.16772-0.13972-0.085686-0.26619-0.1913-0.37542-0.3135-0.41069-0.47025-0.80805-0.94599-1.2156-1.4162-0.20185-0.24386-0.41638-0.47696-0.64268-0.69832-0.24061-0.2265-0.44517-0.2171-0.67168 0.024296-0.14467 0.16883-0.2757 0.34887-0.39188 0.53844-0.13089 0.19437-0.2461 0.39971-0.37698 0.59487-0.22729 0.3378-0.36601 0.35661-0.67638 0.078375-0.20221-0.1787-0.38639-0.37777-0.58703-0.55803-0.15292-0.14436-0.31784-0.27546-0.49298-0.39188-0.30958-0.19437-0.46398-0.17713-0.71792 0.078375-0.35347 0.35974-0.69519 0.73202-1.0369 1.1035-0.34172 0.3715-0.51336 0.36288-0.82059-0.019594-0.20613-0.2555-0.39188-0.52982-0.59722-0.78375-0.28215-0.34642-0.52198-0.3378-0.73281 0.050944-0.30801 0.56744-0.58233 1.1521-0.87388 1.7243-0.12227 0.2414-0.24296 0.48279-0.37855 0.71635-0.15675 0.26256-0.2845 0.28842-0.48906 0.057214-0.18264-0.19849-0.33311-0.42433-0.44595-0.66932-0.18418-0.42636-0.3135-0.87467-0.22415-1.3528 0.072105 0.20848 0.13481 0.42166 0.21867 0.627 0.1254 0.30096 0.26099 0.59957 0.5643 0.77278 0.042323-0.029782 0.083861-0.043106 0.095618-0.070538 0.29391-0.63876 0.60192-1.2712 0.86918-1.921 0.21733-0.49263 0.19536-1.058-0.059565-1.5322 0.30096-0.20691 0.64268-0.25629 0.99615-0.26099-0.030566 0.88564 0.40285 1.5471 1.0298 2.1067 0.28137 0.25158 0.44282 0.24061 0.74378 0.00627 0.066002-0.048925 0.12598-0.10549 0.1787-0.16851 0.2845-0.35817 0.56273-0.72105 0.84645-1.0792 0.089348-0.11286 0.19045-0.21553 0.2892-0.32604 0.45849 0.3715 0.87545 0.71321 1.2963 1.0494 0.33153 0.26491 0.61289 0.24218 0.88642-0.082294 0.20378-0.24218 0.39971-0.49141 0.58233-0.74927 0.25707-0.36288 0.29547-0.73359-0.0070538-1.0973-0.029581-0.048799-0.052015-0.10159-0.066619-0.15675l1.5675-0.39188c-0.011609 0.055504-0.032828 0.10855-0.0627 0.15675-0.42323 0.44987-0.38561 0.9405-0.096401 1.4241 0.27495 0.46286 0.57587 0.90979 0.90131 1.3386 0.18523 0.22727 0.40595 0.42312 0.65365 0.57998 0.25237 0.16929 0.44125 0.066619 0.50238-0.23513 0.032438-0.14868 0.05366-0.29958 0.063484-0.45144 0.047917-0.89047-0.020586-1.7834-0.20378-2.6561l1.544 0.64111-0.065051 0.57527z" fill="#AEA2B5"/>
<path d="m14.744 12.979c-0.19694-0.77535-0.53344-1.5084-0.99301-2.1632-0.044952-0.068948-0.093617-0.1354-0.14578-0.19907-0.18261-0.20691-0.27196-0.22023-0.45771-0.024296-0.14706 0.15047-0.27475 0.31871-0.38012 0.50082-0.19359 0.34877-0.35739 0.71321-0.53844 1.069-0.05643 0.11286-0.12618 0.21867-0.18026 0.3135-0.23513 0.022729-0.29861-0.13324-0.37228-0.25942-0.26491-0.45536-0.52276-0.91621-0.77983-1.3771-0.078375-0.13951-0.14343-0.28607-0.21396-0.42871 0.10737 0.06897 0.21867 0.13324 0.32134 0.20926 0.19751 0.14813 0.38169 0.3135 0.58546 0.45222 0.39658 0.26726 0.63562 0.23513 0.95226-0.12618 0.16224-0.18497 0.30096-0.39188 0.46476-0.57527 0.21632-0.24218 0.3809-0.27196 0.64503-0.078375 0.19594 0.14421 0.35661 0.33701 0.53217 0.50944 0.47025 0.45928 0.93188 0.92483 1.4108 1.3747 0.14346 0.12145 0.30303 0.22247 0.47417 0.30018 0.27666 0.14029 0.38639 0.11208 0.57057-0.13559 0.33054-0.43124 0.5741-0.92262 0.71713-1.4468 0.12227-0.47025 0.43106-0.80178 0.79316-1.0863 0.32682-0.25629 0.60192-0.21161 0.84567 0.1254 0.12505 0.18448 0.23263 0.38022 0.32134 0.58468 0.09405 0.20142 0.16145 0.41539 0.24767 0.62152 0.20691 0.49533 0.33231 0.51414 0.72027 0.15675 0.21689-0.19673 0.4488-0.37623 0.69362-0.53687 0.14108-0.09405 0.3135-0.14186 0.55333-0.2461-0.017055 0.13594-0.044568 0.27036-0.082294 0.40206-0.20509 0.55152-0.50215 1.0643-0.87859 1.5166-0.27039 0.3135-0.59565 0.53687-1.0189 0.57371-0.40598 0.036053-0.81432 0.054863-1.2219 0.078375 0.043106-0.10816 0.078375-0.22023 0.13245-0.32291 0.24385-0.45887 0.34973-0.97848 0.30488-1.4962-0.03762-0.43263-0.14656-0.84253-0.43185-1.1866-1.0596 0.66776-1.0808 2.2133-0.25942 3.0057-0.032979 0.011157-0.067193 0.018263-0.10189 0.021161-1.0764-0.040233-2.153-0.082294-3.2298-0.12618z" fill="#ADA1B5"/>
<path d="m12.488 6.7779c0.014603 0.055164 0.037038 0.10795 0.066619 0.15675 0.30253 0.3668 0.26412 0.73751 0.0070537 1.0973-0.18261 0.25785-0.37855 0.50709-0.58233 0.74927-0.27353 0.32447-0.5549 0.3472-0.88642 0.082294-0.42087-0.33623-0.83783-0.67795-1.2963-1.0494-0.098753 0.11051-0.19986 0.21318-0.2892 0.32604-0.28372 0.35817-0.56195 0.72105-0.84645 1.0792-0.052711 0.06302-0.11269 0.11958-0.1787 0.16851-0.30096 0.23513-0.46241 0.24531-0.74378-0.00627-0.627-0.5596-1.0604-1.2211-1.0298-2.1067 0.32761-0.00627 0.656-0.036836 0.98126-0.014891 1.5103 0.10189 2.9853-0.12775 4.4525-0.44752 0.11454-0.017413 0.22991-0.028924 0.34563-0.034485z" fill="#E4DFDE"/>
<path d="m15.815 6.5506c0.18319 0.87274 0.25169 1.7657 0.20378 2.6561-0.0098242 0.15186-0.031045 0.30276-0.063484 0.45144-0.061133 0.29861-0.25002 0.40128-0.50238 0.23513-0.2477-0.15686-0.46842-0.35271-0.65365-0.57998-0.32544-0.42886-0.62636-0.87579-0.90131-1.3386-0.2892-0.48357-0.32682-0.9742 0.096401-1.4241 0.029872-0.048199 0.051091-0.10125 0.0627-0.15675 0.589-0.11529 1.1986-0.060932 1.758 0.15675z" fill="#E4DFDF"/>
<path d="m10.502 10.309c-0.28685-0.061133-0.4922 0.064268-0.67481 0.2751-0.39188 0.45066-0.627 0.98518-0.86918 1.5197-0.14343 0.3135-0.28137 0.63719-0.44282 1.0056-0.12148-0.091699-0.2124-0.1301-0.25472-0.19829-0.15675-0.24767-0.29626-0.50395-0.43733-0.75946-0.14108-0.2555-0.27118-0.54863-0.4342-0.80256-0.10894-0.17164-0.24061-0.17007-0.3762-0.022729-0.60427 0.656-0.99223 1.4162-1.0925 2.3121-0.017243 0.15126-0.03762 0.30174-0.05643 0.45301-0.48593 0.15675-0.97028 0.32682-1.4891 0.30018 0.021945-0.26569 0.093266-0.54 0.052511-0.79551-0.045458-0.28215-0.19359-0.54863-0.29704-0.82137s-0.21396-0.56508-0.32055-0.84724c0.17243 0.21945 0.33309 0.44987 0.52041 0.656 0.18917 0.22208 0.40176 0.4231 0.63405 0.59957 0.26648 0.1881 0.43185 0.12775 0.60819-0.15283 0.30096-0.47652 0.59722-0.95539 0.89661-1.4319 0.05016-0.078375 0.10424-0.15675 0.15675-0.23513 0.35739-0.49847 0.57684-0.5306 1.0698-0.15675 0.10267 0.078375 0.19986 0.1638 0.3041 0.23983 0.34015 0.24688 0.48357 0.23983 0.79237-0.06897 0.33153-0.33153 0.64895-0.67795 0.97812-1.0126 0.26177-0.25394 0.40677-0.26569 0.73202-0.055646z" fill="#AEA2B5"/>
<path d="m3.8082 11.927c0.1045 0.28215 0.21135 0.56456 0.32055 0.84724 0.10346 0.27275 0.25158 0.53922 0.29704 0.82137 0.040755 0.2555-0.030566 0.52982-0.052511 0.79551-0.50003 0.035269-0.88407-0.19751-1.1937-0.5549-0.40755-0.47025-0.685-1.0244-0.74378-1.638-0.059022-0.49707 0.08796-0.99663 0.40677-1.3825 0.36491 0.27868 0.67322 0.62451 0.90837 1.0189l0.05643 0.088564 7.8375e-4 0.0039187z" fill="#E3DEDD"/>
<path d="m5.7128 7.5405c0.25492 0.47427 0.2769 1.0396 0.059565 1.5322-0.26726 0.64973-0.57527 1.2822-0.86918 1.921-0.011756 0.027431-0.053295 0.040755-0.095618 0.070538-0.30331-0.17321-0.4389-0.47025-0.5643-0.77278-0.083861-0.20378-0.14656-0.41696-0.21867-0.627 0.03602-0.15808 0.084772-0.31298 0.14578-0.4632 0.27796-0.58326 0.69221-1.0911 1.2078-1.4805 0.10707-0.068071 0.21891-0.12832 0.33466-0.18026z" fill="#E3DEDE"/>
<path d="m18.076 13.089c-0.82137-0.79237-0.80021-2.3379 0.25942-3.0057 0.28529 0.34407 0.39188 0.75397 0.43185 1.1866 0.044854 0.5177-0.06103 1.0373-0.30488 1.4962-0.053295 0.10267-0.089348 0.21475-0.13245 0.32291h-0.25394z" fill="#E4DFDE"/>
<path d="m17.295 7.7591 0.063484-0.56979 0.85429 0.41774c-0.17791 0.50787-0.3135 0.627-0.70538 0.64032-0.072105-0.16145-0.1429-0.32421-0.2124-0.48828z" fill="#E2DDDC"/>
<path d="m19.136 8.2772c0.30174 0.02508 0.96166 0.48671 1.6208 1.1215-0.26961 0.18026-0.40912 0.18888-0.627-0.023513-0.21788-0.2124-0.39188-0.4342-0.58468-0.65208-0.13245-0.14578-0.26491-0.28999-0.40912-0.44595z" fill="#A99DB0"/>
<path d="m17.505 8.2498c0.39736-0.01254 0.52982-0.13245 0.70538-0.64032 0.46163 0.20299 0.61603 0.3088 0.7477 0.51649-0.35034-0.11208-0.35034-0.11208-0.68735 0.13245-0.19907 0.14421-0.39736 0.28999-0.59722 0.4342-0.032298 0.013618-0.065916 0.023861-0.10032 0.030566-0.017242-0.16067-0.044674-0.31742-0.068186-0.47339z" fill="#AB9FB2"/>
<path d="m3.8261 11.935-0.072-0.1 0.072 0.1z" fill="#AEA2B5"/>
</g>
</svg>
