<?xml version="1.0" encoding="UTF-8"?>
<svg width="100" height="100" viewBox="0 0 32 32" xmlns="http://www.w3.org/2000/svg">
<g transform="translate(2.963 4.148)">
<path d="m18.208 0h1.5236c0.038848 0.027563 0.081604 0.049164 0.12685 0.064086 1.7618 0.27536 3.162 1.1507 4.1986 2.5846 1.6483 2.281 2.224 4.8374 1.8351 7.6142-0.41507 2.9613-1.6624 5.5156-3.8054 7.61-1.8322 1.7895-4.0358 3.0071-6.367 4.0099-0.44115 0.19014-0.91612 0.29578-1.3798 0.44085 0.4489-0.42818 0.89991-0.85284 1.3439-1.2852 0.15574-0.15212 0.29245-0.32395 0.43762-0.48733 0.15504-0.065494 0.30937-0.13451 0.46581-0.19719 2.6285-1.0479 4.8237-2.6486 6.4128-5.0184 1.2163-1.8113 2.05-3.7473 2.0803-5.9818 0.030302-2.2536-0.52782-4.3092-1.809-6.1839-1.9189-2.8085-5.3854-2.6233-7.1506-1.3923-1.7012 1.1859-2.9245 3.9184-1.3108 6.222 0.55037 0.78523 1.2896 1.2064 2.2551 1.1881 0.79843-0.014789 1.1839-0.45353 1.1522-1.2486-0.014094-0.36832-0.027484-0.73804-0.0091611-1.105 0.015504-0.30634 0.15856-0.55142 0.48836-0.62184 0.3298-0.070424 0.55319 0.10634 0.7047 0.36973 0.8238 1.4465 0.35799 2.7564-1.0162 3.3247-0.98106 0.4039-2.0422 0.57598-3.1007 0.50283-1.8266-0.11409-3.2416-0.84509-4.0027-2.6127-0.19802-0.46057-0.47709-0.89298-0.76108-1.3099-0.32135-0.47114-0.81816-0.62466-1.3657-0.56339-0.30471 0.031028-0.60292 0.1082-0.8844 0.22888-1.3319 0.60846-2.2804 1.624-2.9464 2.9029-0.18322 0.35212-0.21141 0.75565-0.12121 1.1676 0.096914-0.061076 0.18094-0.1405 0.24735-0.23381 0.649-0.86759 1.5062-1.5579 2.4925-2.0071 1.0049-0.45776 1.384-0.36409 2.0986 0.46198 0.24171 0.2817 0.49329 0.55212 0.71739 0.84509 1.1226 1.4705 2.6539 2.174 4.4495 2.3888 0.27413 0.77466 0.96826 1.0958 1.6208 1.4655-0.027484 0.02324-0.039464 0.040142-0.055672 0.045776-0.079632 0.026761-0.16067 0.049297-0.2403 0.076058-1.0256 0.33533-1.9518 0.91998-2.6955 1.7014-0.11698 0.12395-0.15292 0.32395-0.22691 0.48945-0.17885 0.010208-0.35814 0.010208-0.53698 0-1.3692-0.14648-2.7173-0.3993-3.9922-0.93382-0.95065-0.3993-1.8794-0.85213-2.8188-1.2789-0.28752-0.13028-0.57292-0.26972-0.87031-0.37184-0.46581-0.15986-0.91048-0.042959-1.2156 0.31339-0.32346 0.37747-0.63423 0.80072-0.81605 1.2564-0.27695 0.67889-0.52712 1.4085-0.28893 2.1515 0.16913 0.52677 0.45453 1.0148 0.68215 1.5233 0.14869 0.33311 0.34319 0.66058 0.41437 1.0106 0.085269 0.41832 0.060605 0.85917 0.08386 1.2902-0.21987-0.19648-0.4496-0.38311-0.65749-0.59086-1.432-1.4254-2.9273-2.805-3.594-4.8029v-1.2043c0.030302-0.061973 0.065538-0.12183 0.089497-0.18592 0.20436-0.54086 0.36081-1.1064 0.61873-1.6198 1.3739-2.7469 3.2832-5.1918 5.6158-7.191 0.60802-0.52084 1.2741-0.96982 1.9852-1.3381 1.1832-0.6148 2.4143-0.61198 3.6236-0.0056339 0.45876 0.23029 0.91612 0.45846 1.3756 0.68663 0.021141-0.02324 0.042282-0.03662 0.04792-0.054227 0.6744-2.1191 2.1641-3.3585 4.2585-3.9437 0.19661-0.05986 0.39463-0.11268 0.59266-0.1669z" fill="#fdb610"/>
<path d="m15.208 11.678c-1.7956-0.21479-3.3269-0.91551-4.4495-2.3888-0.2241-0.29367-0.47568-0.56339-0.71739-0.84509-0.71457-0.82607-1.0937-0.91974-2.0986-0.46198-0.98633 0.44923-1.8435 1.1395-2.4925 2.0071-0.06641 0.093305-0.15044 0.17273-0.24735 0.23381-0.089497-0.41198-0.062014-0.81551 0.12121-1.1676 0.66595-1.2796 1.6145-2.2951 2.945-2.9008 0.28148-0.12067 0.57969-0.19785 0.8844-0.22888 0.54756-0.064086 1.0444 0.089439 1.3657 0.56339 0.28188 0.41691 0.56376 0.84931 0.76108 1.3099 0.75967 1.7676 2.1761 2.4986 4.0027 2.6127 1.0585 0.073149 2.1196-0.098929 3.1007-0.50283 1.3756-0.57114 1.8414-1.881 1.0141-3.3275-0.15151-0.26339-0.37208-0.44085-0.7047-0.36973-0.33262 0.071128-0.47286 0.3155-0.48836 0.62184-0.018322 0.36691-0.0049329 0.73664 0.0091612 1.105 0.031712 0.79509-0.35235 1.2338-1.1522 1.2486-0.96192 0.01831-1.7012-0.40283-2.2551-1.1881-1.6138-2.3036-0.39041-5.036 1.3108-6.222 1.7688-1.231 5.2353-1.4162 7.1542 1.3916 1.2812 1.8747 1.8393 3.9283 1.809 6.1839-0.030302 2.2346-0.86397 4.1705-2.0803 5.9818-1.5912 2.3698-3.7864 3.9705-6.4128 5.0184-0.15644 0.062677-0.31077 0.13169-0.46581 0.19719-0.061309 0.015493-0.12473 0.025353-0.18393 0.045776-2.217 0.76973-4.4953 1.0979-6.8286 0.81692-0.96826-0.1169-1.9189-0.39085-2.871-0.61973-0.37349-0.089439-0.67652-0.32395-0.80407-0.70424-0.36974-1.0986-0.72984-2.2019-1.0803-3.3099-0.07047-0.22043-0.084565-0.45776-0.12473-0.68804l0.099363-0.038733c0.12614 0.1993 0.25369 0.3979 0.37772 0.5986 0.39323 0.63382 0.75474 1.2958 1.1853 1.9057 0.42735 0.63329 1.1035 1.0556 1.8604 1.162 0.66806 0.09789 1.334 0.2162 2.0056 0.27325 1.735 0.14578 3.434-0.076058 5.0985-0.57607 1.6766-0.45151 3.2454-1.2346 4.6137-2.3029 2.4714-1.9289 4.1077-4.3663 4.4122-7.5607 0.10917-1.1382-0.049624-2.2862-0.4637-3.3522-0.3205-1.0876-0.92463-2.0705-1.7505-2.8479-0.89638-0.84509-1.9563-1.2021-3.1909-1.0747-2.1444 0.22113-3.6433 2.5289-2.9513 4.567 0.12685 0.37254 0.3291 0.68241 0.71246 0.83734 0.22973 0.055635 0.45876 0.15352 0.6892 0.15775 0.33262 0.0063382 0.44819-0.18099 0.35235-0.50071-0.061309-0.1993-0.14869-0.39156-0.22832-0.58593-0.23044-0.56339-0.12403-0.89861 0.38618-1.2338 0.44446-0.28355 0.94952-0.45847 1.4742-0.51057 0.48977 0.04155 0.92951 0.19296 1.26 0.57959 1.427 1.6719 1.0944 4.5776-1.2368 5.51-1.1834 0.46835-2.4566 0.6666-3.7265 0.58029z" fill="#4D4040"/>
<path d="m14.854 19.413c-1.6645 0.50001-3.3636 0.72185-5.0985 0.57607-0.67158-0.057044-1.3389-0.17536-2.0056-0.27325-0.75583-0.10433-1.4321-0.52372-1.8611-1.1543-0.43057-0.60987-0.79209-1.2676-1.1853-1.9057-0.12403-0.20071-0.25158-0.3993-0.37772-0.5986l-0.099363 0.038733c0.040168 0.23029 0.054967 0.46762 0.12473 0.68804 0.35094 1.1057 0.71105 2.209 1.0803 3.3099 0.12755 0.37888 0.43057 0.61339 0.80407 0.70424 0.95206 0.22888 1.9027 0.50283 2.871 0.61973 2.3333 0.2817 4.6116-0.047184 6.8286-0.81692 0.059195-0.020423 0.12262-0.030282 0.18393-0.045776-0.14517 0.16338-0.28188 0.33522-0.43762 0.48733-0.44396 0.4324-0.89498 0.85706-1.3439 1.2852-0.41507 0.34156-0.81112 0.70917-1.248 1.0204-1.4869 1.0564-3.0521 1.205-4.6511 0.2817-1.5229-0.8919-2.9292-1.9692-4.1867-3.2071-0.023255-0.431 0-0.87185-0.08386-1.2902-0.07047-0.35212-0.26567-0.67748-0.41437-1.0106-0.23044-0.51198-0.51232-1-0.68215-1.5268-0.23819-0.74227 0.01198-1.4726 0.28893-2.1515 0.18534-0.45564 0.49329-0.87889 0.81605-1.2564 0.30514-0.35635 0.74981-0.47325 1.2156-0.31339 0.29739 0.10211 0.58279 0.24155 0.87031 0.37184 0.93937 0.42677 1.8682 0.8796 2.8188 1.2789 1.2748 0.53452 2.6229 0.78734 3.9922 0.93382 0.17885 0.010208 0.35814 0.010208 0.53698 0l0.064833 0.10211c0.45172 0.62537 1.1226 0.8965 1.8231 1.1106 0.34037 0.10423 0.68991 0.18029 1.0451 0.27184-0.34883 0.3162-0.68286 0.59015-0.98659 0.8972-0.42282 0.4317-0.68074 0.95284-0.70259 1.5726z" fill="#e37c11"/>
<path d="m13.675 15.559-0.064833-0.10211c0.073994-0.1655 0.10993-0.3655 0.22691-0.48945 0.74365-0.78146 1.6699-1.3661 2.6955-1.7014 0.079632-0.026761 0.16067-0.049297 0.2403-0.076058 0.016208-0.0056339 0.028188-0.022536 0.055672-0.045776-0.65256-0.36973-1.3467-0.68945-1.6208-1.4655 1.2687 0.085782 2.5406-0.11247 3.723-0.58029 2.3312-0.93241 2.6638-3.8381 1.2368-5.51-0.33051-0.38663-0.77024-0.53804-1.26-0.57959-0.63724-0.18901-1.3153-0.19195-1.9541-0.0084509-0.15991 0.050682-0.30603 0.13742-0.42705 0.25353-0.43128 0.40142-0.49893 0.90143-0.34531 1.4472 0.090907 0.32254 0.22057 0.64156 0.056376 0.97889-0.38336-0.15493-0.58561-0.4648-0.71246-0.83734-0.69202-2.0381 0.80689-4.3459 2.9513-4.567 1.2346-0.12747 2.2945 0.2324 3.1909 1.0747 0.82628 0.7782 1.4304 1.7621 1.7505 2.8508-0.021141 0.37888-0.028893 0.75847-0.065538 1.1352-0.22762 2.3198-1.2628 4.1959-3.1275 5.598-1.6878 1.2676-3.6306 1.9507-5.6665 2.4078-0.29527 0.068311-0.58843 0.14507-0.883 0.21691z" fill="#FCE3C2"/>
<path d="m13.675 15.559c0.29457-0.070424 0.58772-0.14859 0.883-0.21479 2.0359-0.45705 3.9788-1.1388 5.6665-2.4078 1.8646-1.4021 2.8999-3.2782 3.1275-5.598 0.036645-0.37677 0.044396-0.75635 0.065538-1.1352 0.41407 1.066 0.57287 2.2139 0.4637 3.3522-0.30443 3.1937-1.9408 5.6339-4.4122 7.5607-1.3692 1.0664-2.9385 1.8476-4.6151 2.2972 0.021846-0.61973 0.28188-1.1409 0.7047-1.5747 0.30091-0.30705 0.63423-0.581 0.98659-0.8972-0.35235-0.091551-0.7047-0.16761-1.0451-0.27184-0.70189-0.21409-1.3735-0.48522-1.8252-1.1106z" fill="#D8A87D"/>
<path d="m16.238 7.6819c0.1642-0.33733 0.03453-0.65635-0.056376-0.97889-0.15363-0.54579-0.085974-1.0458 0.34531-1.4472 0.12102-0.1161 0.26714-0.20284 0.42705-0.25353 0.63866-0.18418 1.3167-0.18198 1.9541 0.0063382-0.52472 0.052103-1.0298 0.22702-1.4742 0.51057-0.51021 0.33522-0.61662 0.66973-0.38618 1.2338 0.079632 0.19437 0.16702 0.38663 0.22832 0.58593 0.099363 0.31973-0.016208 0.50705-0.35235 0.50071-0.22691-0.0042254-0.45594-0.10211-0.68568-0.15775z" fill="#D7A77C"/>
</g>
</svg>
